<svg width="3250" height="2529" viewBox="0 0 3250 2529" fill="none" xmlns="http://www.w3.org/2000/svg">
<g filter="url(#filter0_ddddd_524_257)">
<circle cx="2731.66" cy="988.879" r="438" fill="#575757"/>
<path d="M3158.67 852.994C3159.81 856.175 3160.56 860.863 3161.62 864.673C3165.97 880.687 3166.91 886.731 3169.68 901.455C3175.08 923.089 3179.65 988.871 3174.2 988.879C3174.2 988.879 3174.2 988.879 3174.2 988.879C3174.16 988.879 3174.11 988.872 3174.07 988.86C3173.22 988.624 3172.24 983.078 3171.25 982.279C3170.26 981.483 3164.05 982.155 3163.47 974.497C3162.89 963.412 3161.97 936.574 3160.9 930.674C3160.31 926.645 3159.02 921.785 3158.05 916.653C3154.87 900.209 3153.33 891.484 3148.02 877.307C3147.25 871.263 3146.35 865.242 3145.32 859.225C3142.63 851.76 3139.66 840.153 3137.87 835.654C3136.42 831.975 3134.98 830.057 3133.42 826.265C3131.66 822.026 3129.56 815.204 3125.96 807.627C3119.99 795.251 3117.27 793.855 3113.29 786.692C3109.13 779.272 3103.35 767.301 3097 758.428C3096.11 757.375 3095.22 756.326 3094.33 755.283C3094.51 756.33 3094.68 757.376 3094.85 758.421C3091.75 753.934 3091.18 751.509 3088.38 747.342C3085.07 742.445 3082.66 740.465 3080.35 737.248C3078.45 734.615 3076.36 730.685 3073.75 727.357C3069.95 722.52 3070.03 724.173 3067.84 721.693C3067.1 720.593 3050.96 702.375 3049.92 701.482C3042.86 693.808 3043.14 692.286 3037.38 686.243C3021.32 669.543 3002.49 654.868 2985.04 642.6C2977.25 637.106 2969.08 631.439 2961.16 626.178C2975.67 631.457 2948.73 611.522 2956.63 622.519C2947.97 616.357 2940.72 613.842 2932 608.937C2926.33 605.792 2922.63 603.08 2914.24 599.135C2899.3 592.079 2881.78 587.644 2878.55 582.609C2860.13 576.603 2844.17 571.009 2836.61 572.469C2831.8 571.412 2819.7 566.722 2814.25 565.45C2809.22 563.711 2768.88 557.44 2762.17 557.442C2755.48 556.889 2743.86 556.379 2738.21 556.615C2735.92 556.695 2733.84 557.111 2731.66 557.507C2727.1 558.343 2722.16 559.044 2713.6 556.72C2698.99 557.728 2693.85 558.056 2680.25 559.12C2677.79 559.33 2677.44 558.788 2676.01 558.969C2673.05 559.346 2668.15 560.45 2662.91 561.342C2654.32 562.81 2649.23 562.599 2650.53 564.251C2644.99 565.624 2639.42 567.119 2633.92 568.715C2631.89 568.814 2629.85 568.928 2627.82 569.056C2624.95 570.171 2622.08 571.318 2619.23 572.496C2621.97 568.85 2601.66 576.353 2608.83 575.902C2598.07 578.512 2587.39 581.546 2576.8 585.006C2577.07 581.411 2554.03 593.925 2556.81 594.704C2555.65 595.217 2554.5 595.735 2553.34 596.257C2542.92 600.122 2534.03 605.249 2521.93 611.327C2509.86 617.516 2510.88 616.735 2506.59 617.628C2503.89 619.364 2501.21 621.128 2498.55 622.92C2486.74 635.414 2485.05 627.795 2463.9 647.682C2455.07 651.345 2438.49 667.141 2428.37 678.272C2427.18 679.558 2427.49 679.916 2425.94 681.66C2422.11 685.866 2411.73 696.037 2413.23 696.736C2409.52 700.127 2405.85 703.587 2402.25 707.117C2399.79 710.419 2397.38 713.755 2395.02 717.117C2395.4 717.401 2395.79 717.686 2396.17 717.971C2389.69 723.323 2382.39 734.104 2378.41 739.114C2377.62 740.109 2376.91 739.945 2374.5 743.107C2371.67 746.801 2367.08 754.103 2363.98 758.689C2363.46 760.899 2362.95 763.109 2362.47 765.317C2357.74 773.926 2354.41 776.007 2351.47 781.019C2350.85 781.875 2342.24 798.847 2341.92 799.842C2338.68 807.592 2340.74 805.943 2331.15 828.134C2329.48 832.105 2327.7 835.159 2326.32 838.816C2323.75 845.209 2318.64 865.395 2319.44 867.279C2315.5 874.798 2310.81 896.616 2309.23 903.013C2308.72 904.926 2307.67 905.167 2306.37 911.137C2305.27 915.984 2304.06 928.706 2303.2 934.911C2302.26 941.503 2301.24 943.84 2300.89 946.785C2300.57 949.585 2300.98 952.229 2300.69 956.063C2299.76 968.09 2298.41 978.841 2298.38 988.44C2298.38 988.587 2298.38 988.733 2298.38 988.879C2298.4 1002.55 2300.87 1014.42 2302.65 1025.63C2302.77 1028.47 2302.62 1031.26 2302.93 1034.24C2306.55 1070.99 2316.07 1111.77 2329.37 1146.4C2334.85 1162.69 2352.37 1202.01 2350.97 1189.79C2353.92 1194.96 2375.04 1232.82 2380.35 1239.28C2385.13 1246.01 2389.72 1250.75 2393.74 1255.82C2405.98 1271.04 2414.66 1281.86 2432.13 1298.05C2436.66 1302.21 2442.13 1305.98 2444.82 1308.41C2448.06 1311.33 2451.02 1315.11 2455.34 1318.8C2465.51 1327.74 2485.99 1342.51 2496.87 1349.58C2498.84 1350.9 2499.11 1352.01 2501.86 1354.03C2512.52 1361.95 2525.66 1368.99 2524.54 1365.54C2538.68 1374.93 2553.46 1380.52 2567.94 1386.41C2598.24 1399.89 2657.15 1414.69 2686.12 1415.68C2704.24 1416.65 2703.8 1415.86 2730.49 1417.25C2730.88 1417.27 2731.27 1417.28 2731.66 1417.3C2737.23 1417.5 2742.85 1417.68 2749.55 1417.65C2766.42 1417.56 2782.2 1417.95 2794.57 1413.61C2813.26 1411.5 2827.73 1407.81 2841.75 1406.34C2843.22 1405.42 2844.68 1404.5 2846.13 1403.58C2848.35 1402.95 2850.56 1402.31 2852.76 1401.65C2853.59 1401.92 2854.41 1402.18 2855.24 1402.44C2871.2 1397.9 2890.16 1388.68 2902.89 1383.07C2924.85 1374.79 2977.2 1344.55 2994.63 1330.54C3004.17 1323.54 3003.93 1322.28 3010.51 1319.58C3012.44 1317.75 3014.36 1315.91 3016.25 1314.06C3017.19 1312.61 3018.12 1311.16 3019.03 1309.71C3030.32 1299.63 3043.53 1287.39 3053.14 1276.58C3071 1257.14 3093.08 1224.27 3106.56 1201.58C3110.03 1195.94 3114.79 1189.09 3117.7 1183.27C3121.91 1174.77 3121.49 1172.05 3126.31 1161.1C3134.89 1142.39 3148.7 1106.33 3152.61 1087.08C3153.87 1081.41 3153.84 1078.61 3154.58 1074.68C3157.59 1058.2 3159.6 1044.5 3160.17 1028.41C3163.13 1011.37 3164.8 1012.84 3167.09 1007.58C3168.83 1003.6 3172.54 990.957 3173.82 989.1C3174.76 987.816 3175.94 992.612 3176.97 990.818C3177.55 1012.24 3175.93 1021.25 3172.73 1038.28C3169.27 1070.06 3162.36 1101.47 3152.13 1131.76C3150.66 1134.34 3149.18 1136.89 3147.67 1139.42C3147.66 1139.42 3147.66 1139.42 3147.66 1139.42C3142.86 1150.68 3142.17 1155.97 3139.91 1162.2C3121.54 1224.03 3038.9 1322.91 2977.94 1358.04C2965.82 1366.98 2923.05 1390.98 2912.97 1393.74C2910.43 1394.62 2909.41 1394.13 2906.79 1395.22C2883.76 1405.72 2859.79 1414.24 2835.2 1420.64C2801.6 1427.78 2766.66 1432.09 2731.66 1432.36C2713.42 1432.5 2695.34 1431.58 2677.44 1429.47C2535.53 1413.67 2406.09 1324.36 2340.07 1200.22C2327.04 1176.44 2313.14 1144.76 2305.94 1119.14C2302.94 1108.49 2302.96 1103.66 2298.61 1089.8C2298.93 1089.57 2299.26 1089.34 2299.59 1089.11C2296.35 1076.82 2293.95 1069.07 2291.71 1054.96C2289.57 1043.21 2286.85 1011.44 2287.01 1000.91C2286.95 995.415 2287.69 997.452 2287.63 992.322C2287.62 991.302 2287.6 990.145 2287.57 988.879C2287.34 979.229 2287.17 963.401 2288.09 952.69C2288.87 941.792 2292.05 923.519 2293.4 915.207C2297.93 885.245 2305.58 852.75 2318.03 822.773C2321.41 814.497 2326.98 804.345 2328.15 801.822C2330.41 796.854 2330.34 795.013 2331.87 791.653C2339.48 774.534 2355.27 749.902 2365.9 735.033C2399.88 686.029 2446.35 641.42 2497.04 610.368C2528.5 589.763 2586.39 565.32 2620.41 558.248C2627.66 556.561 2625.96 557.976 2632.05 556.551C2638.8 555.01 2642.38 553.641 2645.53 552.962C2665.41 548.221 2708.01 543.205 2731.66 544.106C2734.07 544.146 2736.27 544.215 2738.22 544.304C2742.27 544.491 2745.17 545.334 2747.58 545.415C2748.8 545.458 2751.56 545.042 2755.39 545.191C2789.29 546.736 2813.88 550.95 2846 559.43C2907.55 575.551 2974.94 609.718 3024.64 654.717C3035.53 664.426 3041.53 672.573 3042.99 673.979C3046.19 677.119 3048.96 678.413 3055.39 684.86C3076.97 706.187 3100.54 739.74 3115.25 764.454C3122.72 776.552 3132.84 793.413 3138.79 806.147C3143.83 816.235 3152.72 841.211 3154.67 845.8C3155.95 848.562 3157.43 849.559 3158.67 852.994ZM2905.58 594.273C2908.07 593.38 2888.75 586.849 2895.44 590.642C2896.94 591.461 2904.94 594.463 2905.58 594.273ZM2307.9 1083.6C2308.34 1083.31 2308.78 1083.02 2309.23 1082.73C2308.45 1080.16 2307.69 1077.56 2306.96 1074.98C2306.96 1076.51 2306.98 1078.06 2307 1079.6C2307.3 1080.93 2307.59 1082.27 2307.9 1083.6Z" fill="white"/>
<circle cx="1855.66" cy="988.879" r="438" fill="#575757"/>
<path d="M2282.67 852.994C2283.81 856.175 2284.56 860.863 2285.62 864.673C2289.97 880.687 2290.91 886.731 2293.68 901.455C2299.08 923.089 2303.65 988.871 2298.2 988.879C2298.2 988.879 2298.2 988.879 2298.2 988.879C2298.16 988.879 2298.11 988.872 2298.07 988.86C2297.22 988.624 2296.24 983.078 2295.25 982.279C2294.26 981.483 2288.05 982.155 2287.47 974.497C2286.89 963.412 2285.97 936.574 2284.9 930.674C2284.31 926.645 2283.02 921.785 2282.05 916.653C2278.87 900.209 2277.33 891.484 2272.02 877.307C2271.25 871.263 2270.35 865.242 2269.32 859.225C2266.63 851.76 2263.66 840.153 2261.87 835.654C2260.42 831.975 2258.98 830.057 2257.42 826.265C2255.66 822.026 2253.56 815.204 2249.96 807.627C2243.99 795.251 2241.27 793.855 2237.29 786.692C2233.13 779.272 2227.35 767.301 2221 758.428C2220.11 757.375 2219.22 756.326 2218.33 755.283C2218.51 756.33 2218.68 757.376 2218.85 758.421C2215.75 753.934 2215.18 751.509 2212.38 747.342C2209.07 742.445 2206.66 740.465 2204.35 737.248C2202.45 734.615 2200.36 730.685 2197.75 727.357C2193.95 722.52 2194.03 724.173 2191.84 721.693C2191.1 720.593 2174.96 702.375 2173.92 701.482C2166.86 693.808 2167.14 692.286 2161.38 686.243C2145.32 669.543 2126.49 654.868 2109.04 642.6C2101.25 637.106 2093.08 631.439 2085.16 626.178C2099.67 631.457 2072.73 611.522 2080.63 622.519C2071.97 616.357 2064.72 613.842 2056 608.937C2050.33 605.792 2046.63 603.08 2038.24 599.135C2023.3 592.079 2005.78 587.644 2002.55 582.609C1984.13 576.603 1968.17 571.009 1960.61 572.469C1955.8 571.412 1943.7 566.722 1938.25 565.45C1933.22 563.711 1892.88 557.44 1886.17 557.442C1879.48 556.889 1867.86 556.379 1862.21 556.615C1859.92 556.695 1857.84 557.111 1855.66 557.507C1851.1 558.343 1846.16 559.044 1837.6 556.72C1822.99 557.728 1817.85 558.056 1804.25 559.12C1801.79 559.33 1801.44 558.788 1800.01 558.969C1797.05 559.346 1792.15 560.45 1786.91 561.342C1778.32 562.81 1773.23 562.599 1774.53 564.251C1768.99 565.624 1763.42 567.119 1757.92 568.715C1755.89 568.814 1753.85 568.928 1751.82 569.056C1748.95 570.171 1746.08 571.318 1743.23 572.496C1745.97 568.85 1725.66 576.353 1732.83 575.902C1722.07 578.512 1711.39 581.546 1700.8 585.006C1701.07 581.411 1678.03 593.925 1680.81 594.704C1679.65 595.217 1678.5 595.735 1677.34 596.257C1666.92 600.122 1658.03 605.249 1645.93 611.327C1633.86 617.516 1634.88 616.735 1630.59 617.628C1627.89 619.364 1625.21 621.128 1622.55 622.92C1610.74 635.414 1609.05 627.795 1587.9 647.682C1579.07 651.345 1562.49 667.141 1552.37 678.272C1551.18 679.558 1551.49 679.916 1549.94 681.66C1546.11 685.866 1535.73 696.037 1537.23 696.736C1533.52 700.127 1529.85 703.587 1526.25 707.117C1523.79 710.419 1521.38 713.755 1519.02 717.117C1519.4 717.401 1519.79 717.686 1520.17 717.971C1513.69 723.323 1506.39 734.104 1502.41 739.114C1501.62 740.109 1500.91 739.945 1498.5 743.107C1495.67 746.801 1491.08 754.103 1487.98 758.689C1487.46 760.899 1486.95 763.109 1486.47 765.317C1481.74 773.926 1478.41 776.007 1475.47 781.019C1474.85 781.875 1466.24 798.847 1465.92 799.842C1462.68 807.592 1464.74 805.943 1455.15 828.134C1453.48 832.105 1451.7 835.159 1450.32 838.816C1447.75 845.209 1442.64 865.395 1443.44 867.279C1439.5 874.798 1434.81 896.616 1433.23 903.013C1432.72 904.926 1431.67 905.167 1430.37 911.137C1429.27 915.984 1428.06 928.706 1427.2 934.911C1426.26 941.503 1425.24 943.84 1424.89 946.785C1424.57 949.585 1424.98 952.229 1424.69 956.063C1423.76 968.09 1422.41 978.841 1422.38 988.44C1422.38 988.587 1422.38 988.733 1422.38 988.879C1422.4 1002.55 1424.87 1014.42 1426.65 1025.63C1426.77 1028.47 1426.62 1031.26 1426.93 1034.24C1430.55 1070.99 1440.07 1111.77 1453.37 1146.4C1458.85 1162.69 1476.37 1202.01 1474.97 1189.79C1477.92 1194.96 1499.04 1232.82 1504.35 1239.28C1509.13 1246.01 1513.72 1250.75 1517.74 1255.82C1529.98 1271.04 1538.66 1281.86 1556.13 1298.05C1560.66 1302.21 1566.13 1305.98 1568.82 1308.41C1572.06 1311.33 1575.02 1315.11 1579.34 1318.8C1589.51 1327.74 1609.99 1342.51 1620.87 1349.58C1622.84 1350.9 1623.11 1352.01 1625.86 1354.03C1636.52 1361.95 1649.66 1368.99 1648.54 1365.54C1662.68 1374.93 1677.46 1380.52 1691.94 1386.41C1722.24 1399.89 1781.15 1414.69 1810.12 1415.68C1828.24 1416.65 1827.8 1415.86 1854.49 1417.25C1854.88 1417.27 1855.27 1417.28 1855.66 1417.3C1861.23 1417.5 1866.85 1417.68 1873.55 1417.65C1890.42 1417.56 1906.2 1417.95 1918.57 1413.61C1937.26 1411.5 1951.73 1407.81 1965.75 1406.34C1967.22 1405.42 1968.68 1404.5 1970.13 1403.58C1972.35 1402.95 1974.56 1402.31 1976.76 1401.65C1977.59 1401.92 1978.41 1402.18 1979.24 1402.44C1995.2 1397.9 2014.16 1388.68 2026.89 1383.07C2048.85 1374.79 2101.2 1344.55 2118.63 1330.54C2128.17 1323.54 2127.93 1322.28 2134.51 1319.58C2136.44 1317.75 2138.36 1315.91 2140.25 1314.06C2141.19 1312.61 2142.12 1311.16 2143.03 1309.71C2154.32 1299.63 2167.53 1287.39 2177.14 1276.58C2195 1257.14 2217.08 1224.27 2230.56 1201.58C2234.03 1195.94 2238.79 1189.09 2241.7 1183.27C2245.91 1174.77 2245.49 1172.05 2250.31 1161.1C2258.89 1142.39 2272.7 1106.33 2276.61 1087.08C2277.87 1081.41 2277.84 1078.61 2278.58 1074.68C2281.59 1058.2 2283.6 1044.5 2284.17 1028.41C2287.13 1011.37 2288.8 1012.84 2291.09 1007.58C2292.83 1003.6 2296.54 990.957 2297.82 989.1C2298.76 987.816 2299.94 992.612 2300.97 990.818C2301.55 1012.24 2299.93 1021.25 2296.73 1038.28C2293.27 1070.06 2286.36 1101.47 2276.13 1131.76C2274.66 1134.34 2273.18 1136.89 2271.67 1139.42C2271.66 1139.42 2271.66 1139.42 2271.66 1139.42C2266.86 1150.68 2266.17 1155.97 2263.91 1162.2C2245.54 1224.03 2162.9 1322.91 2101.94 1358.04C2089.82 1366.98 2047.05 1390.98 2036.97 1393.74C2034.43 1394.62 2033.41 1394.13 2030.79 1395.22C2007.76 1405.72 1983.79 1414.24 1959.2 1420.64C1925.6 1427.78 1890.66 1432.09 1855.66 1432.36C1837.42 1432.5 1819.34 1431.58 1801.44 1429.47C1659.53 1413.67 1530.09 1324.36 1464.07 1200.22C1451.04 1176.44 1437.14 1144.76 1429.94 1119.14C1426.94 1108.49 1426.96 1103.66 1422.61 1089.8C1422.93 1089.57 1423.26 1089.34 1423.59 1089.11C1420.35 1076.82 1417.95 1069.07 1415.71 1054.96C1413.57 1043.21 1410.85 1011.44 1411.01 1000.91C1410.95 995.415 1411.69 997.452 1411.63 992.322C1411.62 991.302 1411.6 990.145 1411.57 988.879C1411.34 979.229 1411.17 963.401 1412.09 952.69C1412.87 941.792 1416.05 923.519 1417.4 915.207C1421.93 885.245 1429.58 852.75 1442.03 822.773C1445.41 814.497 1450.98 804.345 1452.15 801.822C1454.41 796.854 1454.34 795.013 1455.87 791.653C1463.48 774.534 1479.27 749.902 1489.9 735.033C1523.88 686.029 1570.35 641.42 1621.04 610.368C1652.5 589.763 1710.39 565.32 1744.41 558.248C1751.66 556.561 1749.96 557.976 1756.05 556.551C1762.8 555.01 1766.38 553.641 1769.53 552.962C1789.41 548.221 1832.01 543.205 1855.66 544.106C1858.07 544.146 1860.27 544.215 1862.22 544.304C1866.27 544.491 1869.17 545.334 1871.58 545.415C1872.8 545.458 1875.56 545.042 1879.39 545.191C1913.29 546.736 1937.88 550.95 1970 559.43C2031.55 575.551 2098.94 609.718 2148.64 654.717C2159.53 664.426 2165.53 672.573 2166.99 673.979C2170.19 677.119 2172.96 678.413 2179.39 684.86C2200.97 706.187 2224.54 739.74 2239.25 764.454C2246.72 776.552 2256.84 793.413 2262.79 806.147C2267.83 816.235 2276.72 841.211 2278.67 845.8C2279.95 848.562 2281.43 849.559 2282.67 852.994ZM2029.58 594.273C2032.07 593.38 2012.75 586.849 2019.44 590.642C2020.94 591.461 2028.94 594.463 2029.58 594.273ZM1431.9 1083.6C1432.34 1083.31 1432.78 1083.02 1433.23 1082.73C1432.45 1080.16 1431.69 1077.56 1430.96 1074.98C1430.96 1076.51 1430.98 1078.06 1431 1079.6C1431.3 1080.93 1431.59 1082.27 1431.9 1083.6Z" fill="white"/>
<circle cx="2293.66" cy="550.879" r="438" fill="#575757"/>
<path d="M2720.67 414.994C2721.81 418.175 2722.56 422.863 2723.62 426.673C2727.97 442.687 2728.91 448.731 2731.68 463.455C2737.08 485.089 2741.65 550.871 2736.2 550.879C2736.2 550.879 2736.2 550.879 2736.2 550.879C2736.16 550.879 2736.11 550.872 2736.07 550.86C2735.22 550.624 2734.24 545.078 2733.25 544.279C2732.26 543.483 2726.05 544.155 2725.47 536.497C2724.89 525.412 2723.97 498.574 2722.9 492.674C2722.31 488.645 2721.02 483.785 2720.05 478.653C2716.87 462.209 2715.33 453.484 2710.02 439.307C2709.25 433.263 2708.35 427.242 2707.32 421.225C2704.63 413.76 2701.66 402.153 2699.87 397.654C2698.42 393.975 2696.98 392.057 2695.42 388.265C2693.66 384.026 2691.56 377.204 2687.96 369.627C2681.99 357.251 2679.27 355.855 2675.29 348.692C2671.13 341.272 2665.35 329.301 2659 320.428C2658.11 319.375 2657.22 318.326 2656.33 317.283C2656.51 318.33 2656.68 319.376 2656.85 320.421C2653.75 315.934 2653.18 313.509 2650.38 309.342C2647.07 304.445 2644.66 302.465 2642.35 299.248C2640.45 296.615 2638.36 292.685 2635.75 289.357C2631.95 284.52 2632.03 286.173 2629.84 283.693C2629.1 282.593 2612.96 264.375 2611.92 263.482C2604.86 255.808 2605.14 254.286 2599.38 248.243C2583.32 231.543 2564.49 216.868 2547.04 204.6C2539.25 199.106 2531.08 193.439 2523.16 188.178C2537.67 193.457 2510.73 173.522 2518.63 184.519C2509.97 178.357 2502.72 175.842 2494 170.937C2488.33 167.792 2484.63 165.08 2476.24 161.135C2461.3 154.079 2443.78 149.644 2440.55 144.609C2422.13 138.603 2406.17 133.009 2398.61 134.469C2393.8 133.412 2381.7 128.722 2376.25 127.45C2371.22 125.711 2330.88 119.44 2324.17 119.442C2317.48 118.889 2305.86 118.379 2300.21 118.615C2297.92 118.695 2295.84 119.111 2293.66 119.507C2289.1 120.343 2284.16 121.044 2275.6 118.72C2260.99 119.728 2255.85 120.056 2242.25 121.12C2239.79 121.33 2239.44 120.788 2238.01 120.969C2235.05 121.346 2230.15 122.45 2224.91 123.342C2216.32 124.81 2211.23 124.599 2212.53 126.251C2206.99 127.624 2201.42 129.119 2195.92 130.715C2193.89 130.814 2191.85 130.928 2189.82 131.056C2186.95 132.171 2184.08 133.318 2181.23 134.496C2183.97 130.85 2163.66 138.353 2170.83 137.902C2160.07 140.512 2149.39 143.546 2138.8 147.006C2139.07 143.411 2116.03 155.925 2118.81 156.704C2117.65 157.217 2116.5 157.735 2115.34 158.257C2104.92 162.122 2096.03 167.249 2083.93 173.327C2071.86 179.516 2072.88 178.735 2068.59 179.628C2065.89 181.364 2063.21 183.128 2060.55 184.92C2048.74 197.414 2047.05 189.795 2025.9 209.682C2017.07 213.345 2000.49 229.141 1990.37 240.272C1989.18 241.558 1989.49 241.916 1987.94 243.66C1984.11 247.866 1973.73 258.037 1975.23 258.736C1971.52 262.127 1967.85 265.587 1964.25 269.117C1961.79 272.419 1959.38 275.755 1957.02 279.117C1957.4 279.401 1957.79 279.686 1958.17 279.971C1951.69 285.323 1944.39 296.104 1940.41 301.114C1939.62 302.109 1938.91 301.945 1936.5 305.107C1933.67 308.801 1929.08 316.103 1925.98 320.689C1925.46 322.899 1924.95 325.109 1924.47 327.317C1919.74 335.926 1916.41 338.007 1913.47 343.019C1912.85 343.875 1904.24 360.847 1903.92 361.842C1900.68 369.592 1902.74 367.943 1893.15 390.134C1891.48 394.105 1889.7 397.159 1888.32 400.816C1885.75 407.209 1880.64 427.395 1881.44 429.279C1877.5 436.798 1872.81 458.616 1871.23 465.013C1870.72 466.926 1869.67 467.167 1868.37 473.137C1867.27 477.984 1866.06 490.706 1865.2 496.911C1864.26 503.503 1863.24 505.84 1862.89 508.785C1862.57 511.585 1862.98 514.229 1862.69 518.063C1861.76 530.09 1860.41 540.841 1860.38 550.44C1860.38 550.587 1860.38 550.733 1860.38 550.879C1860.4 564.553 1862.87 576.417 1864.65 587.633C1864.77 590.472 1864.62 593.264 1864.93 596.24C1868.55 632.992 1878.07 673.766 1891.37 708.399C1896.85 724.695 1914.37 764.013 1912.97 751.793C1915.92 756.956 1937.04 794.818 1942.35 801.276C1947.13 808.009 1951.72 812.748 1955.74 817.821C1967.98 833.038 1976.66 843.863 1994.13 860.047C1998.66 864.205 2004.13 867.981 2006.82 870.406C2010.06 873.335 2013.02 877.108 2017.34 880.804C2027.51 889.736 2047.99 904.509 2058.87 911.579C2060.84 912.895 2061.11 914.006 2063.86 916.029C2074.52 923.954 2087.66 930.99 2086.54 927.54C2100.68 936.934 2115.46 942.52 2129.94 948.413C2160.24 961.89 2219.15 976.691 2248.12 977.681C2266.24 978.654 2265.8 977.864 2292.49 979.253C2292.88 979.268 2293.27 979.283 2293.66 979.298C2299.23 979.503 2304.85 979.679 2311.55 979.646C2328.42 979.564 2344.2 979.948 2356.57 975.613C2375.26 973.495 2389.73 969.806 2403.75 968.337C2405.22 967.424 2406.68 966.503 2408.13 965.575C2410.35 964.951 2412.56 964.31 2414.76 963.651C2415.59 963.916 2416.41 964.179 2417.24 964.439C2433.2 959.904 2452.16 950.678 2464.89 945.068C2486.85 936.785 2539.2 906.546 2556.63 892.535C2566.17 885.54 2565.93 884.279 2572.51 881.579C2574.44 879.755 2576.36 877.914 2578.25 876.057C2579.19 874.612 2580.12 873.164 2581.03 871.713C2592.32 861.63 2605.53 849.389 2615.14 838.583C2633 819.138 2655.08 786.274 2668.56 763.585C2672.03 757.937 2676.79 751.092 2679.7 745.269C2683.91 736.77 2683.49 734.048 2688.31 723.1C2696.89 704.393 2710.7 668.325 2714.61 649.084C2715.87 643.413 2715.84 640.615 2716.58 636.682C2719.59 620.197 2721.6 606.499 2722.17 590.407C2725.13 573.372 2726.8 574.837 2729.09 569.58C2730.83 565.601 2734.54 552.957 2735.82 551.1C2736.76 549.816 2737.94 554.612 2738.97 552.818C2739.55 574.243 2737.93 583.249 2734.73 600.285C2731.27 632.061 2724.36 663.469 2714.13 693.761C2712.66 696.335 2711.18 698.887 2709.67 701.416C2709.66 701.416 2709.66 701.415 2709.66 701.415C2704.86 712.684 2704.17 717.973 2701.91 724.199C2683.54 786.025 2600.9 884.914 2539.94 920.045C2527.82 928.98 2485.05 952.981 2474.97 955.744C2472.43 956.618 2471.41 956.129 2468.79 957.221C2445.76 967.718 2421.79 976.237 2397.2 982.636C2363.6 989.776 2328.66 994.089 2293.66 994.357C2275.42 994.504 2257.34 993.58 2239.44 991.471C2097.53 975.67 1968.09 886.357 1902.07 762.223C1889.04 738.445 1875.14 706.758 1867.94 681.142C1864.94 670.49 1864.96 665.663 1860.61 651.804C1860.93 651.571 1861.26 651.338 1861.59 651.106C1858.35 638.825 1855.95 631.073 1853.71 616.964C1851.57 605.208 1848.85 573.442 1849.01 562.913C1848.95 557.415 1849.69 559.452 1849.63 554.322C1849.62 553.302 1849.6 552.145 1849.57 550.879C1849.34 541.229 1849.17 525.401 1850.09 514.69C1850.87 503.792 1854.05 485.519 1855.4 477.207C1859.93 447.245 1867.58 414.75 1880.03 384.773C1883.41 376.497 1888.98 366.345 1890.15 363.822C1892.41 358.854 1892.34 357.013 1893.87 353.653C1901.48 336.534 1917.27 311.902 1927.9 297.033C1961.88 248.029 2008.35 203.42 2059.04 172.368C2090.5 151.763 2148.39 127.32 2182.41 120.248C2189.66 118.561 2187.96 119.976 2194.05 118.551C2200.8 117.01 2204.38 115.641 2207.53 114.962C2227.41 110.221 2270.01 105.205 2293.66 106.106C2296.07 106.146 2298.27 106.215 2300.22 106.304C2304.27 106.491 2307.17 107.334 2309.58 107.415C2310.8 107.458 2313.56 107.042 2317.39 107.191C2351.29 108.736 2375.88 112.95 2408 121.43C2469.55 137.551 2536.94 171.718 2586.64 216.717C2597.53 226.426 2603.53 234.573 2604.99 235.979C2608.19 239.119 2610.96 240.413 2617.39 246.86C2638.97 268.187 2662.54 301.74 2677.25 326.454C2684.72 338.552 2694.84 355.413 2700.79 368.147C2705.83 378.235 2714.72 403.211 2716.67 407.8C2717.95 410.562 2719.43 411.559 2720.67 414.994ZM2467.58 156.273C2470.07 155.38 2450.75 148.849 2457.44 152.642C2458.94 153.461 2466.94 156.463 2467.58 156.273ZM1869.9 645.596C1870.34 645.306 1870.78 645.016 1871.23 644.726C1870.45 642.158 1869.69 639.561 1868.96 636.984C1868.96 638.508 1868.98 640.059 1869 641.598C1869.3 642.933 1869.59 644.266 1869.9 645.596Z" fill="white"/>
<circle cx="2293.66" cy="1156.88" r="438" fill="#575757"/>
<path d="M2720.67 1020.99C2721.81 1024.18 2722.56 1028.86 2723.62 1032.67C2727.97 1048.69 2728.91 1054.73 2731.68 1069.45C2737.08 1091.09 2741.65 1156.87 2736.2 1156.88C2736.2 1156.88 2736.2 1156.88 2736.2 1156.88C2736.16 1156.88 2736.11 1156.87 2736.07 1156.86C2735.22 1156.62 2734.24 1151.08 2733.25 1150.28C2732.26 1149.48 2726.05 1150.15 2725.47 1142.5C2724.89 1131.41 2723.97 1104.57 2722.9 1098.67C2722.31 1094.65 2721.02 1089.79 2720.05 1084.65C2716.87 1068.21 2715.33 1059.48 2710.02 1045.31C2709.25 1039.26 2708.35 1033.24 2707.32 1027.22C2704.63 1019.76 2701.66 1008.15 2699.87 1003.65C2698.42 999.975 2696.98 998.057 2695.42 994.265C2693.66 990.026 2691.56 983.204 2687.96 975.627C2681.99 963.251 2679.27 961.855 2675.29 954.692C2671.13 947.272 2665.35 935.301 2659 926.428C2658.11 925.375 2657.22 924.326 2656.33 923.283C2656.51 924.33 2656.68 925.376 2656.85 926.421C2653.75 921.934 2653.18 919.509 2650.38 915.342C2647.07 910.445 2644.66 908.465 2642.35 905.248C2640.45 902.615 2638.36 898.685 2635.75 895.357C2631.95 890.52 2632.03 892.173 2629.84 889.693C2629.1 888.593 2612.96 870.375 2611.92 869.482C2604.86 861.808 2605.14 860.286 2599.38 854.243C2583.32 837.543 2564.49 822.868 2547.04 810.6C2539.25 805.106 2531.08 799.439 2523.16 794.178C2537.67 799.457 2510.73 779.522 2518.63 790.519C2509.97 784.357 2502.72 781.842 2494 776.937C2488.33 773.792 2484.63 771.08 2476.24 767.135C2461.3 760.079 2443.78 755.644 2440.55 750.609C2422.13 744.603 2406.17 739.009 2398.61 740.469C2393.8 739.412 2381.7 734.722 2376.25 733.45C2371.22 731.711 2330.88 725.44 2324.17 725.442C2317.48 724.889 2305.86 724.379 2300.21 724.615C2297.92 724.695 2295.84 725.111 2293.66 725.507C2289.1 726.343 2284.16 727.044 2275.6 724.72C2260.99 725.728 2255.85 726.056 2242.25 727.12C2239.79 727.33 2239.44 726.788 2238.01 726.969C2235.05 727.346 2230.15 728.45 2224.91 729.342C2216.32 730.81 2211.23 730.599 2212.53 732.251C2206.99 733.624 2201.42 735.119 2195.92 736.715C2193.89 736.814 2191.85 736.928 2189.82 737.056C2186.95 738.171 2184.08 739.318 2181.23 740.496C2183.97 736.85 2163.66 744.353 2170.83 743.902C2160.07 746.512 2149.39 749.546 2138.8 753.006C2139.07 749.411 2116.03 761.925 2118.81 762.704C2117.65 763.217 2116.5 763.735 2115.34 764.257C2104.92 768.122 2096.03 773.249 2083.93 779.327C2071.86 785.516 2072.88 784.735 2068.59 785.628C2065.89 787.364 2063.21 789.128 2060.55 790.92C2048.74 803.414 2047.05 795.795 2025.9 815.682C2017.07 819.345 2000.49 835.141 1990.37 846.272C1989.18 847.558 1989.49 847.916 1987.94 849.66C1984.11 853.866 1973.73 864.037 1975.23 864.736C1971.52 868.127 1967.85 871.587 1964.25 875.117C1961.79 878.419 1959.38 881.755 1957.02 885.117C1957.4 885.401 1957.79 885.686 1958.17 885.971C1951.69 891.323 1944.39 902.104 1940.41 907.114C1939.62 908.109 1938.91 907.945 1936.5 911.107C1933.67 914.801 1929.08 922.103 1925.98 926.689C1925.46 928.899 1924.95 931.109 1924.47 933.317C1919.74 941.926 1916.41 944.007 1913.47 949.019C1912.85 949.875 1904.24 966.847 1903.92 967.842C1900.68 975.592 1902.74 973.943 1893.15 996.134C1891.48 1000.11 1889.7 1003.16 1888.32 1006.82C1885.75 1013.21 1880.64 1033.4 1881.44 1035.28C1877.5 1042.8 1872.81 1064.62 1871.23 1071.01C1870.72 1072.93 1869.67 1073.17 1868.37 1079.14C1867.27 1083.98 1866.06 1096.71 1865.2 1102.91C1864.26 1109.5 1863.24 1111.84 1862.89 1114.79C1862.57 1117.58 1862.98 1120.23 1862.69 1124.06C1861.76 1136.09 1860.41 1146.84 1860.38 1156.44C1860.38 1156.59 1860.38 1156.73 1860.38 1156.88C1860.4 1170.55 1862.87 1182.42 1864.65 1193.63C1864.77 1196.47 1864.62 1199.26 1864.93 1202.24C1868.55 1238.99 1878.07 1279.77 1891.37 1314.4C1896.85 1330.69 1914.37 1370.01 1912.97 1357.79C1915.92 1362.96 1937.04 1400.82 1942.35 1407.28C1947.13 1414.01 1951.72 1418.75 1955.74 1423.82C1967.98 1439.04 1976.66 1449.86 1994.13 1466.05C1998.66 1470.21 2004.13 1473.98 2006.82 1476.41C2010.06 1479.33 2013.02 1483.11 2017.34 1486.8C2027.51 1495.74 2047.99 1510.51 2058.87 1517.58C2060.84 1518.9 2061.11 1520.01 2063.86 1522.03C2074.52 1529.95 2087.66 1536.99 2086.54 1533.54C2100.68 1542.93 2115.46 1548.52 2129.94 1554.41C2160.24 1567.89 2219.15 1582.69 2248.12 1583.68C2266.24 1584.65 2265.8 1583.86 2292.49 1585.25C2292.88 1585.27 2293.27 1585.28 2293.66 1585.3C2299.23 1585.5 2304.85 1585.68 2311.55 1585.65C2328.42 1585.56 2344.2 1585.95 2356.57 1581.61C2375.26 1579.5 2389.73 1575.81 2403.75 1574.34C2405.22 1573.42 2406.68 1572.5 2408.13 1571.58C2410.35 1570.95 2412.56 1570.31 2414.76 1569.65C2415.59 1569.92 2416.41 1570.18 2417.24 1570.44C2433.2 1565.9 2452.16 1556.68 2464.89 1551.07C2486.85 1542.79 2539.2 1512.55 2556.63 1498.54C2566.17 1491.54 2565.93 1490.28 2572.51 1487.58C2574.44 1485.75 2576.36 1483.91 2578.25 1482.06C2579.19 1480.61 2580.12 1479.16 2581.03 1477.71C2592.32 1467.63 2605.53 1455.39 2615.14 1444.58C2633 1425.14 2655.08 1392.27 2668.56 1369.58C2672.03 1363.94 2676.79 1357.09 2679.7 1351.27C2683.91 1342.77 2683.49 1340.05 2688.31 1329.1C2696.89 1310.39 2710.7 1274.33 2714.61 1255.08C2715.87 1249.41 2715.84 1246.61 2716.58 1242.68C2719.59 1226.2 2721.6 1212.5 2722.17 1196.41C2725.13 1179.37 2726.8 1180.84 2729.09 1175.58C2730.83 1171.6 2734.54 1158.96 2735.82 1157.1C2736.76 1155.82 2737.94 1160.61 2738.97 1158.82C2739.55 1180.24 2737.93 1189.25 2734.73 1206.28C2731.27 1238.06 2724.36 1269.47 2714.13 1299.76C2712.66 1302.34 2711.18 1304.89 2709.67 1307.42C2709.66 1307.42 2709.66 1307.42 2709.66 1307.42C2704.86 1318.68 2704.17 1323.97 2701.91 1330.2C2683.54 1392.03 2600.9 1490.91 2539.94 1526.04C2527.82 1534.98 2485.05 1558.98 2474.97 1561.74C2472.43 1562.62 2471.41 1562.13 2468.79 1563.22C2445.76 1573.72 2421.79 1582.24 2397.2 1588.64C2363.6 1595.78 2328.66 1600.09 2293.66 1600.36C2275.42 1600.5 2257.34 1599.58 2239.44 1597.47C2097.53 1581.67 1968.09 1492.36 1902.07 1368.22C1889.04 1344.44 1875.14 1312.76 1867.94 1287.14C1864.94 1276.49 1864.96 1271.66 1860.61 1257.8C1860.93 1257.57 1861.26 1257.34 1861.59 1257.11C1858.35 1244.82 1855.95 1237.07 1853.71 1222.96C1851.57 1211.21 1848.85 1179.44 1849.01 1168.91C1848.95 1163.41 1849.69 1165.45 1849.63 1160.32C1849.62 1159.3 1849.6 1158.15 1849.57 1156.88C1849.34 1147.23 1849.17 1131.4 1850.09 1120.69C1850.87 1109.79 1854.05 1091.52 1855.4 1083.21C1859.93 1053.24 1867.58 1020.75 1880.03 990.773C1883.41 982.497 1888.98 972.345 1890.15 969.822C1892.41 964.854 1892.34 963.013 1893.87 959.653C1901.48 942.534 1917.27 917.902 1927.9 903.033C1961.88 854.029 2008.35 809.42 2059.04 778.368C2090.5 757.763 2148.39 733.32 2182.41 726.248C2189.66 724.561 2187.96 725.976 2194.05 724.551C2200.8 723.01 2204.38 721.641 2207.53 720.962C2227.41 716.221 2270.01 711.205 2293.66 712.106C2296.07 712.146 2298.27 712.215 2300.22 712.304C2304.27 712.491 2307.17 713.334 2309.58 713.415C2310.8 713.458 2313.56 713.042 2317.39 713.191C2351.29 714.736 2375.88 718.95 2408 727.43C2469.55 743.551 2536.94 777.718 2586.64 822.717C2597.53 832.426 2603.53 840.573 2604.99 841.979C2608.19 845.119 2610.96 846.413 2617.39 852.86C2638.97 874.187 2662.54 907.74 2677.25 932.454C2684.72 944.552 2694.84 961.413 2700.79 974.147C2705.83 984.235 2714.72 1009.21 2716.67 1013.8C2717.95 1016.56 2719.43 1017.56 2720.67 1020.99ZM2467.58 762.273C2470.07 761.38 2450.75 754.849 2457.44 758.642C2458.94 759.461 2466.94 762.463 2467.58 762.273ZM1869.9 1251.6C1870.34 1251.31 1870.78 1251.02 1871.23 1250.73C1870.45 1248.16 1869.69 1245.56 1868.96 1242.98C1868.96 1244.51 1868.98 1246.06 1869 1247.6C1869.3 1248.93 1869.59 1250.27 1869.9 1251.6Z" fill="white"/>
<path d="M2140.96 924.656C2139.4 925.342 2137.33 924.74 2135.7 923.897C2135.18 923.635 2135.34 922.296 2134.98 922.057C2134.25 921.594 2133.67 922.295 2132.94 921.745C2132.7 921.556 2132.79 919.44 2132.53 919.291C2131.13 918.49 2129.94 919.158 2128.57 918.881C2121.75 917.523 2115.02 918.125 2108.19 919.189C2105.94 919.538 2102.67 918.625 2100.73 920.237C2100.5 920.426 2101.3 922.095 2101.3 922.256C2101.36 924.716 2100.31 921.139 2099.63 920.868C2096.93 919.807 2094.59 920.595 2092.98 922.09C2092.3 922.731 2094.61 925.708 2092.97 924.196C2092.85 924.095 2092.25 922.221 2091.94 922.131C2091.24 921.931 2090.44 922.691 2089.99 922.736C2089.11 922.813 2088.99 922.891 2088.28 923.216C2087.3 923.644 2085.71 923.359 2084.89 924.292C2084.72 924.496 2085.94 926.119 2085.76 926.601C2085.58 927.082 2084.61 927.414 2084.08 927.167C2083.55 926.918 2082.91 925.467 2082.69 925.18C2080.75 922.759 2081.75 927.045 2081.68 927.207C2080.15 930.132 2076.89 929.316 2074.66 930.784C2072.98 931.896 2071.67 933.767 2070.07 934.795C2068.16 936.013 2065.96 936.327 2064.34 937.867C2064.16 938.027 2065.86 939.693 2065.65 939.89C2063.5 941.982 2061.12 943.704 2057.83 944.582C2057.5 944.669 2056.37 942.885 2055.96 942.885C2053.44 942.885 2048.3 942.209 2053.96 949.324C2052.84 949.965 2051.53 950.804 2049.43 950.402C2048.07 950.147 2046.9 948.09 2046.99 949.417C2047.01 949.714 2048.64 950.85 2048.56 951.192C2048.24 952.624 2046.82 953.252 2046.77 954.876C2046.77 955.208 2048.15 956.308 2048.35 956.57C2049.93 958.695 2046.03 956.697 2045.65 956.677C2042.79 956.496 2042.7 958.059 2041.68 959.269C2041.44 959.55 2043.58 960.67 2043.43 960.99C2042.58 962.632 2041.32 963.983 2039.43 964.817C2039 965 2037.56 963.526 2037.27 963.555C2036.01 963.707 2039.04 966.061 2037.9 966.244C2037.67 966.287 2036.29 965.221 2036.12 965.138C2033.38 963.846 2036.63 966.602 2036.64 966.754C2036.81 968.767 2032.56 967.178 2032.24 968.834C2032.21 969.032 2034.28 969.866 2034.08 970.347C2032.75 973.551 2030.42 976.346 2027.25 978.522C2026.76 978.864 2025.49 977.749 2025.29 977.682C2022.23 976.674 2025.81 978.998 2025.88 979.224C2026.26 980.966 2022.48 980.526 2026.6 983.625C2022.43 988.064 2022.82 994.389 2016.61 998.263C2016.53 998.315 2014.61 997.479 2014.47 997.589C2012.75 998.906 2015.93 999.677 2019.32 1002.06C2020.18 1002.65 2015.34 1001.97 2014.97 1001.94C2013.65 1001.81 2010.79 1000.55 2010.52 1000.56C2008.38 1000.74 2018.22 1003.81 2017.9 1004.82C2017.87 1004.84 2016.11 1004.13 2015.9 1004.16C2015.25 1004.25 2015.89 1004.74 2015.18 1004.81C2013.55 1004.96 2008.69 1003.74 2011.19 1005.53C2011.52 1005.76 2017.17 1007.25 2016.64 1008.09C2016.42 1008.42 2016.06 1010.07 2015.57 1010.43C2015.08 1010.79 2013.35 1009.98 2013.26 1009.99C2010.51 1010.6 2009.64 1009.86 2005.91 1009.57C2002.18 1009.29 2010.71 1011.32 2011.59 1011.82C2012.47 1012.32 2010.24 1012.73 2009.49 1012.8C2008.74 1012.85 2007.65 1012.28 2007.21 1012.39C2004.3 1013.14 2011.28 1014.02 2012.53 1014.78C2015.49 1016.57 2008.98 1015.9 2008.13 1016.75C2007.91 1016.98 2009.4 1017.08 2009.48 1017.34C2009.8 1018.38 2007.7 1018.52 2009.3 1019.96C2009.56 1020.19 2013.23 1021.79 2010.31 1021.78C2009.89 1021.78 2008.34 1021.26 2007.91 1021.58C2007.26 1022.07 2006.72 1023.08 2007.14 1023.82C2007.45 1024.36 2010.17 1024.28 2009.26 1024.72C2008.85 1024.92 2007.39 1024.17 2006.75 1024.57C2006.11 1024.97 2005.97 1026.26 2005.95 1026.75C2005.93 1027.24 2007.97 1027.29 2008.1 1027.35C2008.83 1027.7 2009.66 1028.76 2009.65 1028.84C2009.3 1032.92 2005.51 1036.29 2006.33 1040.47C2006.4 1040.79 2008.54 1040.73 2008.57 1040.79C2009.39 1041.92 2003.79 1040.68 2001.84 1041.33C2006.17 1041.5 2005.36 1041.9 2005.78 1042.68C2006 1043.06 2007.68 1042.96 2007.85 1043C2010.36 1043.68 2007.06 1043.87 2006.38 1043.94C2003.89 1044.17 2006.79 1044.71 2005.13 1044.88C2003.48 1045.05 2001.07 1044.36 2001.07 1045.12C2002.61 1045.39 2006.68 1045.02 2007.31 1045.6C2009.7 1047.75 2006.46 1051.56 2006.14 1053.26C2005.82 1054.93 2006.12 1055.47 2005.58 1056.46C2004.62 1058.27 2007.6 1057.54 2009.02 1058.57C2010.43 1059.6 2003.02 1059.37 2001.44 1059.59C1999.86 1059.81 2001.5 1059.92 2000.63 1060.16C1999.77 1060.4 1998.67 1060.01 1998.36 1060.5C1998.06 1060.99 2000.95 1062.15 2002.62 1062.22C2006.15 1062.37 2009.81 1061.6 2008.59 1062.87C2008.51 1062.94 2006.56 1062.84 2006.38 1063.12C2005.01 1065.3 2005.09 1067.49 2003.98 1069.74C2003.83 1070.05 2001.65 1070 2001.53 1070.19C2000.34 1072.13 2003.91 1071.12 2008.04 1071.63C2002.66 1072.01 1999.43 1072.92 1999.57 1074.32C1999.65 1075.15 2001.97 1074.73 2003.68 1075.04C2004.2 1075.13 2002.67 1075.91 2003.78 1075.87C2007.41 1075.73 2011.36 1074.67 2009.94 1076.21C2009.88 1076.28 2007.89 1076.37 2007.8 1076.59C2007.2 1078.03 2010.98 1077.64 2011.64 1078.97C2012.17 1080.01 2010.22 1082.36 2010.09 1083.71C2004.11 1084.76 2005.71 1085.77 2009.91 1085.47C2009.9 1086.32 2010.3 1087.15 2009.9 1088.06C2009.76 1088.37 2008.01 1088.55 2007.83 1088.62C2005.02 1089.76 2009.08 1089.29 2009.28 1089.43C2011.2 1091.02 2008.55 1093.29 2011.93 1094.43C2012.05 1094.47 2016.17 1093.57 2013.3 1094.79C2013.1 1094.88 2011.09 1094.72 2011.16 1095.63C2011.23 1096.53 2009.46 1098.72 2011.67 1099.4C2012.2 1099.57 2015.69 1099.38 2013.27 1100.66C2012.95 1100.84 2011.76 1101.08 2011.14 1101.37C2009.18 1102.31 2013.33 1101.36 2009.98 1102.77C2006.62 1104.19 2004.29 1105.88 2007.05 1106.41C2007.13 1106.43 2010.45 1105.75 2010.51 1106.14C2010.61 1106.78 2010.21 1107.85 2010.43 1108.49C2010.54 1108.79 2012.48 1107.96 2012.53 1108.01C2014.3 1109.68 2012.97 1111.63 2012.96 1114.06C2012.95 1114.51 2016.04 1114.68 2014.19 1116.2C2012.17 1117.89 2002.18 1120.53 2005.23 1121.71C2006.46 1122.21 2019.03 1118.53 2013.26 1122.36C2015.86 1124.4 2013.7 1128.22 2017.07 1129.96C2017.22 1130.04 2020.72 1128.95 2020.8 1129.25C2020.91 1129.7 2019.45 1130.62 2019.48 1130.96C2019.58 1132.43 2021.43 1132.96 2021.76 1134.21C2021.9 1134.69 2020.23 1135.28 2020.4 1135.86C2020.56 1136.43 2022.82 1135.78 2022.16 1136.99C2021.65 1137.9 2017.66 1140.53 2017.54 1141.52C2021.74 1139.47 2021.9 1140.02 2023.44 1140.34C2023.74 1140.4 2025.1 1139.49 2025.32 1139.48C2026.23 1139.43 2025.18 1140.33 2026.15 1140.23C2026.38 1140.2 2027.81 1139.48 2028.08 1139.42C2030.43 1138.86 2027.67 1141.34 2027.2 1141.78C2025.39 1143.44 2027.37 1142.74 2026.77 1143.61C2026.17 1144.48 2024.79 1144.38 2024.56 1145.15C2024.08 1146.76 2025.02 1147.94 2025.53 1149.03C2025.75 1149.46 2027.45 1148.14 2027.53 1148.18C2028.47 1148.77 2026.99 1150.75 2030.95 1149.13C2021.74 1155.14 2032.16 1149.12 2030.95 1151.42C2030.85 1151.6 2026.43 1154.32 2025.56 1154.33C2024.68 1154.33 2025.76 1152.95 2024.43 1153.02C2024.12 1153.03 2019.48 1154.71 2019.16 1154.75C2016.72 1155.09 2023.43 1151.21 2023.78 1150.96C2027.55 1148.28 2022.49 1149.96 2022.05 1149.9C2020.01 1149.63 2020.51 1148.25 2018.97 1147.88C2017.98 1147.64 2013.45 1149.94 2013.34 1149.39C2012.96 1147.54 2019.01 1143.8 2012.77 1145.08C2011.44 1145.35 2006.63 1148.14 2009.96 1145.04C2010.17 1144.84 2013.34 1142.23 2010.83 1142.85C2010.51 1142.92 2009.06 1143.63 2008.9 1143.61C2007.84 1143.44 2008.82 1142.51 2007.98 1142.17C2007.13 1141.84 2005.95 1141.5 2006.13 1140.57C2006.23 1140.02 2008.72 1138.22 2009.3 1137.71C2010.98 1136.26 2007.52 1137.09 2009.71 1135.68C2011.92 1134.27 2015.8 1133.33 2016.93 1131.75C2013.07 1133.43 2009.1 1135.11 2005.21 1136.77C2004.42 1134.63 2004.8 1132.06 2003.78 1130.06C2003.65 1129.82 2001.67 1130.94 2001.47 1130.69C2000.66 1129.65 2001.74 1128.03 2000.67 1127.05C1999.83 1126.28 1997.19 1126.07 1996.24 1125.25C2000.51 1122.94 1998.43 1122.02 1998.46 1120.78C1998.46 1120.35 1999.68 1119.95 1999.98 1119.54C2001.09 1118.01 1997.24 1119.89 1996.51 1119.83C1993.4 1119.55 2002.46 1116.32 2001.77 1115.02C2001.74 1114.96 1996.57 1115.66 1996.22 1115.63C1993.98 1115.47 1997.88 1114.94 1998.08 1114.33C1998.44 1113.21 1999.4 1112.18 1997.63 1111.54C1997.1 1111.36 1993.81 1111.52 1995.99 1110.18C1996.27 1110.01 1997.91 1109.56 1997.99 1109.47C1999.22 1107.82 1994.11 1109.3 1992.17 1109.12C1990.24 1108.92 1993.47 1106.84 1994.43 1106.35C1996.91 1105.05 1995.68 1106.46 1995.95 1106.42C1999.13 1105.9 1998.38 1105.29 1998.48 1104.65C2003.49 1103.16 2002.97 1102.47 1998.57 1103.98C1998.09 1104.15 1998.68 1104.47 1998.48 1104.65C1993.41 1105.52 1992.52 1104.75 1996.88 1102.54C1998.93 1101.51 2001.57 1101.28 2000.3 1100.15C1999.72 1099.64 1996.3 1100.77 1995.2 1100.44C1992.7 1099.67 1995.55 1097.17 1994.73 1095.96C1994.43 1095.51 1992.62 1096.43 1992.35 1096.14C1991.62 1095.36 1992.89 1094.25 1991.96 1093.52C1991.87 1093.45 1989.9 1094.08 1989.82 1093.81C1989.13 1091.71 1990.06 1089.65 1989.69 1087.37C1989.5 1086.28 1988.05 1084.52 1988.1 1083.35C1988.16 1081.31 1990.79 1078.52 1989.86 1076.98C1989.26 1075.97 1987.25 1076.45 1985.79 1076.14C1982.98 1075.54 1987.64 1073.35 1988.37 1073.06C1988.39 1073.05 1988.98 1073.94 1989.98 1073.33C1992.14 1072.8 1988.38 1073.07 1988.37 1073.06C1988.84 1072.87 1989.11 1070.95 1988.69 1070.61C1988.45 1070.43 1986.52 1070.73 1986.43 1070.63C1984.46 1068.25 1983.77 1065.74 1984.54 1063.06C1984.58 1063.01 1986.76 1062.96 1986.82 1062.85C1987.71 1061.3 1985 1060.48 1983.37 1059.28C1981.74 1058.08 1982.25 1057.05 1985.99 1056.25C1985.49 1055.33 1987.14 1053.98 1988.14 1053.22C1989.15 1052.47 1984.9 1052.36 1984.81 1052.29C1982.13 1050.13 1984.58 1048.9 1985.02 1046.72C1985.24 1045.68 1984.71 1043.58 1984.31 1042.43C1983.98 1041.51 1985.01 1041.03 1984.43 1040.17C1984.35 1040.05 1982.45 1040.04 1982.38 1040C1980.19 1038.91 1984.77 1039.67 1985.61 1039.54C1988.66 1039.05 1990.28 1038.77 1988.97 1037.5C1988.66 1037.21 1982.09 1035.85 1981.75 1035.3C1981.32 1034.6 1983.67 1035.07 1983.16 1034.33C1983.12 1034.27 1981.65 1034.14 1981.76 1033.72C1982.23 1031.77 1983.33 1029.75 1983.45 1027.71C1983.47 1027.43 1981.11 1027.48 1981.1 1027.06C1981.08 1025.11 1981.48 1023.01 1982.87 1021.35C1983.22 1020.95 1984.78 1021.5 1985.28 1021.48C1988.28 1021.38 1984.21 1019.82 1984.16 1019.66C1982.73 1015.94 1987.04 1014.12 1986.01 1010.37C1985.94 1010.17 1981.82 1007.68 1985.8 1007.96C1986.06 1007.97 1990.11 1008.32 1987.58 1007.11C1987.43 1007.03 1985.32 1006.92 1985.7 1006.3C1986.07 1005.67 1985.01 1004.23 1987.46 1003.87C1988.24 1003.76 1992.28 1004.13 1989.45 1002.41C1989.24 1002.31 1982.68 998.957 1987.62 999.852C1988.43 1000 1993.46 1001.56 1991.17 999.776C1990.73 999.43 1989.49 999.453 1988.95 998.721C1988.1 997.589 1989.78 996.952 1987.85 995.26C1987.51 994.967 1984.34 993.123 1987.11 993.371C1987.55 993.412 1989.17 994.133 1989.45 993.887C1990.83 992.727 1990.25 990.796 1991.92 989.729C1992.51 989.352 1995.1 990.58 1996 990.309C1996.91 990.036 1997.99 989.24 1996.98 988.23C1995.98 987.215 1991.5 986.218 1991.49 985.236C1991.44 980.959 1995.46 978.274 1997.45 974.892C1997.75 974.386 1996.07 974.144 1996.41 973.344C1997.62 970.421 1998.85 964.671 2003.22 963.925C2006.7 963.349 2007.21 966.76 2008.99 965.871C2009.84 965.457 2005.68 962.101 2005.64 961.841C2005.14 959.326 2007.84 959.361 2008.12 957.526C2008.18 957.145 2006.17 956.327 2006.24 956.012C2006.48 954.921 2007.87 954.495 2008.26 953.562C2008.43 953.141 2007.01 952.327 2007.35 952.046C2008.12 951.365 2009.18 951.002 2010.99 951.053C2011.15 951.059 2012.52 952.673 2012.98 952.116C2013.73 951.208 2015.78 950.888 2015.27 948.902C2015.12 948.31 2012.09 946.13 2014.69 946.925C2015.23 947.09 2018.73 949.897 2016.17 946.826C2015.74 946.325 2012.55 941.844 2015.75 943.186C2016.6 943.539 2019.85 945.31 2019.68 944.584C2019.65 944.477 2017.89 943.471 2017.98 943.034C2018.32 941.515 2019.4 940.481 2019.82 938.956C2019.93 938.545 2017.95 937.697 2018.17 937.121C2018.78 935.533 2020.49 934.314 2022 933.55C2022.57 933.27 2023.61 934.696 2023.77 934.786C2026.51 936.273 2023.67 933.283 2023.64 932.953C2023.49 930.95 2025.65 931.438 2026.14 930.15C2026.28 929.796 2024.66 928.657 2024.58 928.487C2023.83 926.784 2026.04 929.573 2026.64 929.495C2028.33 929.286 2029.2 928.14 2029.94 927.025C2030.21 926.614 2028.2 925.42 2028.46 925.066C2029.99 922.939 2032.11 921.179 2034.8 920.376C2035.31 920.228 2036.29 921.712 2036.63 921.937C2039.02 923.531 2037.16 920.069 2037.09 919.642C2036.75 917.714 2038.09 918.591 2038.58 917.768C2041.01 913.692 2046.06 910.949 2049.85 908.956C2054.82 906.328 2059.26 905.381 2063.5 902.319C2063.77 902.126 2062.29 900.305 2062.51 900.112C2065.46 897.697 2069.13 896.71 2072.19 894.414C2072.44 894.228 2071.05 892.463 2071.43 892.097C2072.2 891.332 2073.44 890.858 2074.69 891.045C2075.29 891.133 2075.49 893.132 2076.08 893.189C2077.44 893.327 2078.64 892.951 2079.59 892.139C2080 891.788 2078.37 890.045 2078.98 889.748C2083.07 887.688 2087.25 885.637 2092.55 886.909C2092.91 886.996 2094.64 891.247 2094.97 890.209C2094.62 888.987 2094.15 887.569 2093.74 886.272C2099.82 883.478 2106.62 883.33 2113.08 882.309C2113.35 882.265 2112.41 879.977 2112.94 879.879C2116.02 879.315 2119.05 878.137 2122.51 880.108C2122.85 880.301 2123.25 884.554 2124.07 883.799C2124.21 883.66 2125.5 882.93 2125.75 881.97C2125.79 881.825 2125.31 879.874 2125.75 879.765C2128.32 879.169 2131.18 879.378 2133.81 880.437C2134.24 880.611 2133.93 882.757 2134.23 882.9C2136.35 883.9 2138.56 882.199 2140.59 884.088C2141.94 885.362 2141.51 889.04 2142.22 892.643C2142.32 893.151 2143.09 893.227 2143.14 895.329C2143.25 900.612 2142.93 906.4 2143.1 912.031C2143.13 913.244 2144.03 911.936 2143.5 914.868C2143.46 915.064 2142.82 916.04 2142.68 917.036C2142.58 917.724 2142.78 919.86 2142.58 920.742C2142.37 921.623 2142.12 919.834 2141.78 920.874C2141.44 921.927 2141.64 924.353 2140.96 924.656ZM1992.66 1049.86C1994.71 1049.21 1987.23 1048.96 1989.01 1049.76C1989.11 1049.8 1992.56 1049.89 1992.66 1049.86ZM2010.01 1129.88C2012.71 1127.8 2008.01 1129.1 2005.9 1130.66C2003.8 1132.24 2009.2 1130.52 2010.01 1129.88ZM2015.94 1137.25C2017.87 1135.24 2008.18 1139.56 2010.6 1139.66C2010.74 1139.67 2015.83 1137.36 2015.94 1137.25ZM2139.16 893.734C2139.18 893.832 2139.73 893.913 2139.74 893.815C2139.98 891.432 2138.85 891.272 2139.16 893.734ZM2022.25 1144.09C2023.38 1143.15 2021.49 1143.1 2020.08 1144.27C2018.95 1145.21 2020.85 1145.27 2022.25 1144.09ZM2004.56 1015.99C2004.67 1016 2004.85 1015.65 2004.24 1015.52C2002.25 1015.11 2002.7 1015.76 2004.56 1015.99ZM2029.75 1157.22C2028.91 1155.06 2035.81 1149.5 2036.16 1152.03C2036.23 1152.5 2033.29 1152.66 2032.89 1153.54C2032.18 1155.15 2037.23 1152.89 2035.25 1155.3C2034.89 1155.75 2029.78 1157.35 2029.73 1157.22C2029.74 1157.22 2029.74 1157.22 2029.75 1157.22ZM2001.64 1049.61C2001.74 1049.6 2001.84 1049.08 2001.75 1049.06C1999.38 1048.73 1999.17 1049.8 2001.64 1049.61ZM2015.15 996.282C2015.36 996.328 2015.96 995.287 2015.79 995.183C2012.39 993.213 2011.14 995.372 2015.15 996.282ZM2009.93 1083.76C2012.38 1083.89 2012.77 1084.47 2009.91 1085.47C2009.97 1084.9 2009.88 1084.34 2009.93 1083.76Z" fill="white"/>
<path d="M1714.96 796.656C1713.4 797.342 1711.33 796.74 1709.7 795.897C1709.18 795.635 1709.34 794.296 1708.98 794.057C1708.25 793.594 1707.67 794.295 1706.94 793.745C1706.7 793.556 1706.79 791.44 1706.53 791.291C1705.13 790.49 1703.94 791.158 1702.57 790.881C1695.75 789.523 1689.02 790.125 1682.19 791.189C1679.94 791.538 1676.67 790.625 1674.73 792.237C1674.5 792.426 1675.3 794.095 1675.3 794.256C1675.36 796.716 1674.31 793.139 1673.63 792.868C1670.93 791.807 1668.59 792.595 1666.98 794.09C1666.3 794.731 1668.61 797.708 1666.97 796.196C1666.85 796.095 1666.25 794.221 1665.94 794.131C1665.24 793.931 1664.44 794.691 1663.99 794.736C1663.11 794.813 1662.99 794.891 1662.28 795.216C1661.3 795.644 1659.71 795.359 1658.89 796.292C1658.72 796.496 1659.94 798.119 1659.76 798.601C1659.58 799.082 1658.61 799.414 1658.08 799.167C1657.55 798.918 1656.91 797.467 1656.69 797.18C1654.75 794.759 1655.75 799.045 1655.68 799.207C1654.15 802.132 1650.89 801.316 1648.66 802.784C1646.98 803.896 1645.67 805.767 1644.07 806.795C1642.16 808.013 1639.96 808.327 1638.34 809.867C1638.16 810.027 1639.86 811.693 1639.65 811.89C1637.5 813.982 1635.12 815.704 1631.83 816.582C1631.5 816.669 1630.37 814.885 1629.96 814.885C1627.44 814.885 1622.3 814.209 1627.96 821.324C1626.84 821.965 1625.53 822.804 1623.43 822.402C1622.07 822.147 1620.9 820.09 1620.99 821.417C1621.01 821.714 1622.64 822.85 1622.56 823.192C1622.24 824.624 1620.82 825.252 1620.77 826.876C1620.77 827.208 1622.15 828.308 1622.35 828.57C1623.93 830.695 1620.03 828.697 1619.65 828.677C1616.79 828.496 1616.7 830.059 1615.68 831.269C1615.44 831.55 1617.58 832.67 1617.43 832.99C1616.58 834.632 1615.32 835.983 1613.43 836.817C1613 837 1611.56 835.526 1611.27 835.555C1610.01 835.707 1613.04 838.061 1611.9 838.244C1611.67 838.287 1610.29 837.221 1610.12 837.138C1607.38 835.846 1610.63 838.602 1610.64 838.754C1610.81 840.767 1606.56 839.178 1606.24 840.834C1606.21 841.032 1608.28 841.866 1608.08 842.347C1606.75 845.551 1604.42 848.346 1601.25 850.522C1600.76 850.864 1599.49 849.749 1599.29 849.682C1596.23 848.674 1599.81 850.998 1599.88 851.224C1600.26 852.966 1596.48 852.526 1600.6 855.625C1596.43 860.064 1596.82 866.389 1590.61 870.263C1590.53 870.315 1588.61 869.479 1588.47 869.589C1586.75 870.906 1589.93 871.677 1593.32 874.061C1594.18 874.651 1589.34 873.974 1588.97 873.944C1587.65 873.814 1584.79 872.549 1584.52 872.563C1582.38 872.743 1592.22 875.81 1591.9 876.815C1591.87 876.842 1590.11 876.133 1589.9 876.162C1589.25 876.252 1589.89 876.745 1589.18 876.814C1587.55 876.963 1582.69 875.735 1585.19 877.53C1585.52 877.757 1591.17 879.252 1590.64 880.087C1590.42 880.42 1590.06 882.073 1589.57 882.432C1589.08 882.791 1587.35 881.981 1587.26 881.991C1584.51 882.6 1583.64 881.856 1579.91 881.567C1576.18 881.293 1584.71 883.321 1585.59 883.82C1586.47 884.318 1584.24 884.733 1583.49 884.795C1582.74 884.853 1581.65 884.277 1581.21 884.387C1578.3 885.139 1585.28 886.017 1586.53 886.785C1589.49 888.569 1582.98 887.895 1582.13 888.751C1581.91 888.978 1583.4 889.081 1583.48 889.344C1583.8 890.376 1581.7 890.524 1583.3 891.956C1583.56 892.195 1587.23 893.793 1584.31 893.784C1583.89 893.784 1582.34 893.257 1581.91 893.584C1581.26 894.071 1580.72 895.083 1581.14 895.816C1581.45 896.356 1584.17 896.276 1583.26 896.721C1582.85 896.92 1581.39 896.168 1580.75 896.57C1580.11 896.97 1579.97 898.257 1579.95 898.751C1579.93 899.244 1581.97 899.286 1582.1 899.347C1582.83 899.701 1583.66 900.756 1583.65 900.836C1583.3 904.917 1579.51 908.292 1580.33 912.471C1580.4 912.795 1582.54 912.735 1582.57 912.786C1583.39 913.923 1577.79 912.678 1575.84 913.329C1580.17 913.502 1579.36 913.896 1579.78 914.685C1580 915.064 1581.68 914.96 1581.85 915.004C1584.36 915.68 1581.06 915.871 1580.38 915.937C1577.89 916.173 1580.79 916.709 1579.13 916.877C1577.48 917.052 1575.07 916.364 1575.07 917.117C1576.61 917.389 1580.68 917.02 1581.31 917.6C1583.7 919.746 1580.46 923.56 1580.14 925.261C1579.82 926.934 1580.12 927.472 1579.58 928.464C1578.62 930.266 1581.6 929.536 1583.02 930.571C1584.43 931.602 1577.02 931.368 1575.44 931.59C1573.86 931.815 1575.5 931.923 1574.63 932.16C1573.77 932.399 1572.67 932.009 1572.36 932.499C1572.06 932.995 1574.95 934.152 1576.62 934.22C1580.15 934.37 1583.81 933.6 1582.59 934.87C1582.51 934.944 1580.56 934.837 1580.38 935.115C1579.01 937.295 1579.09 939.49 1577.98 941.742C1577.83 942.053 1575.65 942.004 1575.53 942.189C1574.34 944.13 1577.91 943.121 1582.04 943.635C1576.66 944.01 1573.43 944.916 1573.57 946.317C1573.65 947.153 1575.97 946.73 1577.68 947.038C1578.2 947.129 1576.67 947.906 1577.78 947.865C1581.41 947.726 1585.36 946.667 1583.94 948.214C1583.88 948.283 1581.89 948.368 1581.8 948.588C1581.2 950.025 1584.98 949.639 1585.64 950.969C1586.17 952.008 1584.22 954.358 1584.09 955.712C1578.11 956.757 1579.71 957.773 1583.91 957.472C1583.9 958.32 1584.3 959.153 1583.9 960.059C1583.76 960.371 1582.01 960.547 1581.83 960.619C1579.02 961.757 1583.08 961.291 1583.28 961.432C1585.2 963.017 1582.55 965.288 1585.93 966.43C1586.05 966.471 1590.17 965.575 1587.3 966.792C1587.1 966.876 1585.09 966.724 1585.16 967.627C1585.23 968.534 1583.46 970.718 1585.67 971.4C1586.2 971.569 1589.69 971.377 1587.27 972.665C1586.95 972.839 1585.76 973.079 1585.14 973.371C1583.18 974.315 1587.33 973.356 1583.98 974.771C1580.62 976.186 1578.29 977.88 1581.05 978.407C1581.13 978.427 1584.45 977.748 1584.51 978.143C1584.61 978.778 1584.21 979.854 1584.43 980.488C1584.54 980.791 1586.48 979.964 1586.53 980.005C1588.3 981.684 1586.97 983.632 1586.96 986.063C1586.95 986.514 1590.04 986.679 1588.19 988.204C1586.17 989.889 1576.18 992.53 1579.23 993.708C1580.46 994.207 1593.03 990.534 1587.26 994.365C1589.86 996.404 1587.7 1000.22 1591.07 1001.96C1591.22 1002.04 1594.72 1000.95 1594.8 1001.25C1594.91 1001.7 1593.45 1002.62 1593.48 1002.96C1593.58 1004.43 1595.43 1004.96 1595.76 1006.21C1595.9 1006.69 1594.23 1007.28 1594.4 1007.86C1594.56 1008.43 1596.82 1007.78 1596.16 1008.99C1595.65 1009.9 1591.66 1012.53 1591.54 1013.52C1595.74 1011.47 1595.9 1012.02 1597.44 1012.34C1597.74 1012.4 1599.1 1011.49 1599.32 1011.48C1600.23 1011.43 1599.18 1012.33 1600.15 1012.23C1600.38 1012.2 1601.81 1011.48 1602.08 1011.42C1604.43 1010.86 1601.67 1013.34 1601.2 1013.78C1599.39 1015.44 1601.37 1014.74 1600.77 1015.61C1600.17 1016.48 1598.79 1016.38 1598.56 1017.15C1598.08 1018.76 1599.02 1019.94 1599.53 1021.03C1599.75 1021.46 1601.45 1020.14 1601.53 1020.18C1602.47 1020.77 1600.99 1022.75 1604.95 1021.13C1595.74 1027.14 1606.16 1021.12 1604.95 1023.42C1604.85 1023.6 1600.43 1026.32 1599.56 1026.33C1598.68 1026.33 1599.76 1024.95 1598.43 1025.02C1598.12 1025.03 1593.48 1026.71 1593.16 1026.75C1590.72 1027.09 1597.43 1023.21 1597.78 1022.96C1601.55 1020.28 1596.49 1021.96 1596.05 1021.9C1594.01 1021.63 1594.51 1020.25 1592.97 1019.88C1591.98 1019.64 1587.45 1021.94 1587.34 1021.39C1586.96 1019.54 1593.01 1015.8 1586.77 1017.08C1585.44 1017.35 1580.63 1020.14 1583.96 1017.04C1584.17 1016.84 1587.34 1014.23 1584.83 1014.85C1584.51 1014.92 1583.06 1015.63 1582.9 1015.61C1581.84 1015.44 1582.82 1014.51 1581.98 1014.17C1581.13 1013.84 1579.95 1013.5 1580.13 1012.57C1580.23 1012.02 1582.72 1010.22 1583.3 1009.71C1584.98 1008.26 1581.52 1009.09 1583.71 1007.68C1585.92 1006.27 1589.8 1005.33 1590.93 1003.75C1587.07 1005.43 1583.1 1007.11 1579.21 1008.77C1578.42 1006.63 1578.8 1004.06 1577.78 1002.06C1577.65 1001.82 1575.67 1002.94 1575.47 1002.69C1574.66 1001.65 1575.74 1000.03 1574.67 999.055C1573.83 998.279 1571.19 998.065 1570.24 997.248C1574.51 994.94 1572.43 994.023 1572.46 992.781C1572.46 992.349 1573.68 991.945 1573.98 991.537C1575.09 990.012 1571.24 991.891 1570.51 991.83C1567.4 991.547 1576.46 988.318 1575.77 987.023C1575.74 986.958 1570.57 987.664 1570.22 987.632C1567.98 987.474 1571.88 986.943 1572.08 986.327C1572.44 985.208 1573.4 984.182 1571.63 983.544C1571.1 983.362 1567.81 983.521 1569.99 982.182C1570.27 982.007 1571.91 981.563 1571.99 981.469C1573.22 979.821 1568.11 981.304 1566.17 981.115C1564.24 980.922 1567.47 978.843 1568.43 978.35C1570.91 977.053 1569.68 978.459 1569.95 978.417C1573.13 977.896 1572.38 977.292 1572.48 976.646C1577.49 975.165 1576.97 974.469 1572.57 975.982C1572.09 976.15 1572.68 976.467 1572.48 976.646C1567.41 977.517 1566.52 976.749 1570.88 974.542C1572.93 973.512 1575.57 973.275 1574.3 972.154C1573.72 971.644 1570.3 972.771 1569.2 972.441C1566.7 971.668 1569.55 969.168 1568.73 967.957C1568.43 967.513 1566.62 968.427 1566.35 968.135C1565.62 967.357 1566.89 966.253 1565.96 965.52C1565.87 965.453 1563.9 966.084 1563.82 965.808C1563.13 963.711 1564.06 961.649 1563.69 959.368C1563.5 958.278 1562.05 956.517 1562.1 955.348C1562.16 953.315 1564.79 950.52 1563.86 948.982C1563.26 947.967 1561.25 948.447 1559.79 948.143C1556.98 947.536 1561.64 945.346 1562.37 945.063C1562.39 945.054 1562.98 945.942 1563.98 945.325C1566.14 944.797 1562.38 945.073 1562.37 945.063C1562.84 944.866 1563.11 942.946 1562.69 942.612C1562.45 942.431 1560.52 942.727 1560.43 942.628C1558.46 940.247 1557.77 937.736 1558.54 935.056C1558.58 935.008 1560.76 934.958 1560.82 934.848C1561.71 933.304 1559 932.479 1557.37 931.278C1555.74 930.081 1556.25 929.047 1559.99 928.248C1559.49 927.326 1561.14 925.976 1562.14 925.222C1563.15 924.469 1558.9 924.362 1558.81 924.292C1556.13 922.134 1558.58 920.898 1559.02 918.718C1559.24 917.678 1558.71 915.584 1558.31 914.426C1557.98 913.509 1559.01 913.033 1558.43 912.17C1558.35 912.051 1556.45 912.041 1556.38 912.002C1554.19 910.906 1558.77 911.674 1559.61 911.539C1562.66 911.053 1564.28 910.769 1562.97 909.497C1562.66 909.211 1556.09 907.852 1555.75 907.302C1555.32 906.598 1557.67 907.067 1557.16 906.33C1557.12 906.267 1555.65 906.138 1555.76 905.719C1556.23 903.771 1557.33 901.751 1557.45 899.707C1557.47 899.425 1555.11 899.48 1555.1 899.063C1555.08 897.11 1555.48 895.015 1556.87 893.353C1557.22 892.945 1558.78 893.498 1559.28 893.48C1562.28 893.377 1558.21 891.82 1558.16 891.659C1556.73 887.945 1561.04 886.122 1560.01 882.366C1559.94 882.169 1555.82 879.675 1559.8 879.959C1560.06 879.972 1564.11 880.316 1561.58 879.111C1561.43 879.034 1559.32 878.924 1559.7 878.295C1560.07 877.67 1559.01 876.231 1561.46 875.874C1562.24 875.756 1566.28 876.133 1563.45 874.414C1563.24 874.313 1556.68 870.957 1561.62 871.852C1562.43 872.001 1567.46 873.562 1565.17 871.776C1564.73 871.43 1563.49 871.453 1562.95 870.721C1562.1 869.589 1563.78 868.952 1561.85 867.26C1561.51 866.967 1558.34 865.123 1561.11 865.371C1561.55 865.412 1563.17 866.133 1563.45 865.887C1564.83 864.727 1564.25 862.796 1565.92 861.729C1566.51 861.352 1569.1 862.58 1570 862.309C1570.91 862.036 1571.99 861.24 1570.98 860.23C1569.98 859.215 1565.5 858.218 1565.49 857.236C1565.44 852.959 1569.46 850.274 1571.45 846.892C1571.75 846.386 1570.07 846.144 1570.41 845.344C1571.62 842.421 1572.85 836.671 1577.22 835.925C1580.7 835.349 1581.21 838.76 1582.99 837.871C1583.84 837.457 1579.68 834.101 1579.64 833.841C1579.14 831.326 1581.84 831.361 1582.12 829.526C1582.18 829.145 1580.17 828.327 1580.24 828.012C1580.48 826.921 1581.87 826.495 1582.26 825.562C1582.43 825.141 1581.01 824.327 1581.35 824.046C1582.12 823.365 1583.18 823.002 1584.99 823.053C1585.15 823.059 1586.52 824.673 1586.98 824.116C1587.73 823.208 1589.78 822.888 1589.27 820.902C1589.12 820.31 1586.09 818.13 1588.69 818.925C1589.23 819.09 1592.73 821.897 1590.17 818.826C1589.74 818.325 1586.55 813.844 1589.75 815.186C1590.6 815.539 1593.85 817.31 1593.68 816.584C1593.65 816.477 1591.89 815.471 1591.98 815.034C1592.32 813.515 1593.4 812.481 1593.82 810.956C1593.93 810.545 1591.95 809.697 1592.17 809.121C1592.78 807.533 1594.49 806.314 1596 805.55C1596.57 805.27 1597.61 806.696 1597.77 806.786C1600.51 808.273 1597.67 805.283 1597.64 804.953C1597.49 802.95 1599.65 803.438 1600.14 802.15C1600.28 801.796 1598.66 800.657 1598.58 800.487C1597.83 798.784 1600.04 801.573 1600.64 801.495C1602.33 801.286 1603.2 800.14 1603.94 799.025C1604.21 798.614 1602.2 797.42 1602.46 797.066C1603.99 794.939 1606.11 793.179 1608.8 792.376C1609.31 792.228 1610.29 793.712 1610.63 793.937C1613.02 795.531 1611.16 792.069 1611.09 791.642C1610.75 789.714 1612.09 790.591 1612.58 789.768C1615.01 785.692 1620.06 782.949 1623.85 780.956C1628.82 778.328 1633.26 777.381 1637.5 774.319C1637.77 774.126 1636.29 772.305 1636.51 772.112C1639.46 769.697 1643.13 768.71 1646.19 766.414C1646.44 766.228 1645.05 764.463 1645.43 764.097C1646.2 763.332 1647.44 762.858 1648.69 763.045C1649.29 763.133 1649.49 765.132 1650.08 765.189C1651.44 765.327 1652.64 764.951 1653.59 764.139C1654 763.788 1652.37 762.045 1652.98 761.748C1657.07 759.688 1661.25 757.637 1666.55 758.909C1666.91 758.996 1668.64 763.247 1668.97 762.209C1668.62 760.987 1668.15 759.569 1667.74 758.272C1673.82 755.478 1680.62 755.33 1687.08 754.309C1687.35 754.265 1686.41 751.977 1686.94 751.879C1690.02 751.315 1693.05 750.137 1696.51 752.108C1696.85 752.301 1697.25 756.554 1698.07 755.799C1698.21 755.66 1699.5 754.93 1699.75 753.97C1699.79 753.825 1699.31 751.874 1699.75 751.765C1702.32 751.169 1705.18 751.378 1707.81 752.437C1708.24 752.611 1707.93 754.757 1708.23 754.9C1710.35 755.9 1712.56 754.199 1714.59 756.088C1715.94 757.362 1715.51 761.04 1716.22 764.643C1716.32 765.151 1717.09 765.227 1717.14 767.329C1717.25 772.612 1716.93 778.4 1717.1 784.031C1717.13 785.244 1718.03 783.936 1717.5 786.868C1717.46 787.064 1716.82 788.04 1716.68 789.036C1716.58 789.724 1716.78 791.86 1716.58 792.742C1716.37 793.623 1716.12 791.834 1715.78 792.874C1715.44 793.927 1715.64 796.353 1714.96 796.656ZM1566.66 921.858C1568.71 921.206 1561.23 920.963 1563.01 921.757C1563.11 921.796 1566.56 921.892 1566.66 921.858ZM1584.01 1001.88C1586.71 999.795 1582.01 1001.1 1579.9 1002.66C1577.8 1004.24 1583.2 1002.52 1584.01 1001.88ZM1589.94 1009.25C1591.87 1007.24 1582.18 1011.56 1584.6 1011.66C1584.74 1011.67 1589.83 1009.36 1589.94 1009.25ZM1713.16 765.734C1713.18 765.832 1713.73 765.913 1713.74 765.815C1713.98 763.432 1712.85 763.272 1713.16 765.734ZM1596.25 1016.09C1597.38 1015.15 1595.49 1015.1 1594.08 1016.27C1592.95 1017.21 1594.85 1017.27 1596.25 1016.09ZM1578.56 887.99C1578.67 888.004 1578.85 887.654 1578.24 887.524C1576.25 887.107 1576.7 887.757 1578.56 887.99ZM1603.75 1029.22C1602.91 1027.06 1609.81 1021.5 1610.16 1024.03C1610.23 1024.5 1607.29 1024.66 1606.89 1025.54C1606.18 1027.15 1611.23 1024.89 1609.25 1027.3C1608.89 1027.75 1603.78 1029.35 1603.73 1029.22C1603.74 1029.22 1603.74 1029.22 1603.75 1029.22ZM1575.64 921.613C1575.74 921.601 1575.84 921.077 1575.75 921.063C1573.38 920.727 1573.17 921.797 1575.64 921.613ZM1589.15 868.282C1589.36 868.328 1589.96 867.287 1589.79 867.183C1586.39 865.213 1585.14 867.372 1589.15 868.282ZM1583.93 955.76C1586.38 955.885 1586.77 956.472 1583.91 957.469C1583.97 956.896 1583.88 956.336 1583.93 955.76Z" fill="white"/>
<path d="M2211.96 318.656C2210.4 319.342 2208.33 318.74 2206.7 317.897C2206.18 317.635 2206.34 316.296 2205.98 316.057C2205.25 315.594 2204.67 316.295 2203.94 315.745C2203.7 315.556 2203.79 313.44 2203.53 313.291C2202.13 312.49 2200.94 313.158 2199.57 312.881C2192.75 311.523 2186.02 312.125 2179.19 313.189C2176.94 313.538 2173.67 312.625 2171.73 314.237C2171.5 314.426 2172.3 316.095 2172.3 316.256C2172.36 318.716 2171.31 315.139 2170.63 314.868C2167.93 313.807 2165.59 314.595 2163.98 316.09C2163.3 316.731 2165.61 319.708 2163.97 318.196C2163.85 318.095 2163.25 316.221 2162.94 316.131C2162.24 315.931 2161.44 316.691 2160.99 316.736C2160.11 316.813 2159.99 316.891 2159.28 317.216C2158.3 317.644 2156.71 317.359 2155.89 318.292C2155.72 318.496 2156.94 320.119 2156.76 320.601C2156.58 321.082 2155.61 321.414 2155.08 321.167C2154.55 320.918 2153.91 319.467 2153.69 319.18C2151.75 316.759 2152.75 321.045 2152.68 321.207C2151.15 324.132 2147.89 323.316 2145.66 324.784C2143.98 325.896 2142.67 327.767 2141.07 328.795C2139.16 330.013 2136.96 330.327 2135.34 331.867C2135.16 332.027 2136.86 333.693 2136.65 333.89C2134.5 335.982 2132.12 337.704 2128.83 338.582C2128.5 338.669 2127.37 336.885 2126.96 336.885C2124.44 336.885 2119.3 336.209 2124.96 343.324C2123.84 343.965 2122.53 344.804 2120.43 344.402C2119.07 344.147 2117.9 342.09 2117.99 343.417C2118.01 343.714 2119.64 344.85 2119.56 345.192C2119.24 346.624 2117.82 347.252 2117.77 348.876C2117.77 349.208 2119.15 350.308 2119.35 350.57C2120.93 352.695 2117.03 350.697 2116.65 350.677C2113.79 350.496 2113.7 352.059 2112.68 353.269C2112.44 353.55 2114.58 354.67 2114.43 354.99C2113.58 356.632 2112.32 357.983 2110.43 358.817C2110 359 2108.56 357.526 2108.27 357.555C2107.01 357.707 2110.04 360.061 2108.9 360.244C2108.67 360.287 2107.29 359.221 2107.12 359.138C2104.38 357.846 2107.63 360.602 2107.64 360.754C2107.81 362.767 2103.56 361.178 2103.24 362.834C2103.21 363.032 2105.28 363.866 2105.08 364.347C2103.75 367.551 2101.42 370.346 2098.25 372.522C2097.76 372.864 2096.49 371.749 2096.29 371.682C2093.23 370.674 2096.81 372.998 2096.88 373.224C2097.26 374.966 2093.48 374.526 2097.6 377.625C2093.43 382.064 2093.82 388.389 2087.61 392.263C2087.53 392.315 2085.61 391.479 2085.47 391.589C2083.75 392.906 2086.93 393.677 2090.32 396.061C2091.18 396.651 2086.34 395.974 2085.97 395.944C2084.65 395.814 2081.79 394.549 2081.52 394.563C2079.38 394.743 2089.22 397.81 2088.9 398.815C2088.87 398.842 2087.11 398.133 2086.9 398.162C2086.25 398.252 2086.89 398.745 2086.18 398.814C2084.55 398.963 2079.69 397.735 2082.19 399.53C2082.52 399.757 2088.17 401.252 2087.64 402.087C2087.42 402.42 2087.06 404.073 2086.57 404.432C2086.08 404.791 2084.35 403.981 2084.26 403.991C2081.51 404.6 2080.64 403.856 2076.91 403.567C2073.18 403.293 2081.71 405.321 2082.59 405.82C2083.47 406.318 2081.24 406.733 2080.49 406.795C2079.74 406.853 2078.65 406.277 2078.21 406.387C2075.3 407.139 2082.28 408.017 2083.53 408.785C2086.49 410.569 2079.98 409.895 2079.13 410.751C2078.91 410.978 2080.4 411.081 2080.48 411.344C2080.8 412.376 2078.7 412.524 2080.3 413.956C2080.56 414.195 2084.23 415.793 2081.31 415.784C2080.89 415.784 2079.34 415.257 2078.91 415.584C2078.26 416.071 2077.72 417.083 2078.14 417.816C2078.45 418.356 2081.17 418.276 2080.26 418.721C2079.85 418.92 2078.39 418.168 2077.75 418.57C2077.11 418.97 2076.97 420.257 2076.95 420.751C2076.93 421.244 2078.97 421.286 2079.1 421.347C2079.83 421.701 2080.66 422.756 2080.65 422.836C2080.3 426.917 2076.51 430.292 2077.33 434.471C2077.4 434.795 2079.54 434.735 2079.57 434.786C2080.39 435.923 2074.79 434.678 2072.84 435.329C2077.17 435.502 2076.36 435.896 2076.78 436.685C2077 437.064 2078.68 436.96 2078.85 437.004C2081.36 437.68 2078.06 437.871 2077.38 437.937C2074.89 438.173 2077.79 438.709 2076.13 438.877C2074.48 439.052 2072.07 438.364 2072.07 439.117C2073.61 439.389 2077.68 439.02 2078.31 439.6C2080.7 441.746 2077.46 445.56 2077.14 447.261C2076.82 448.934 2077.12 449.472 2076.58 450.464C2075.62 452.266 2078.6 451.536 2080.02 452.571C2081.43 453.602 2074.02 453.368 2072.44 453.59C2070.86 453.815 2072.5 453.923 2071.63 454.16C2070.77 454.399 2069.67 454.009 2069.36 454.499C2069.06 454.995 2071.95 456.152 2073.62 456.22C2077.15 456.37 2080.81 455.6 2079.59 456.87C2079.51 456.944 2077.56 456.837 2077.38 457.115C2076.01 459.295 2076.09 461.49 2074.98 463.742C2074.83 464.053 2072.65 464.004 2072.53 464.189C2071.34 466.13 2074.91 465.121 2079.04 465.635C2073.66 466.01 2070.43 466.916 2070.57 468.317C2070.65 469.153 2072.97 468.73 2074.68 469.038C2075.2 469.129 2073.67 469.906 2074.78 469.865C2078.41 469.726 2082.36 468.667 2080.94 470.214C2080.88 470.283 2078.89 470.368 2078.8 470.588C2078.2 472.025 2081.98 471.639 2082.64 472.969C2083.17 474.008 2081.22 476.358 2081.09 477.712C2075.11 478.757 2076.71 479.773 2080.91 479.472C2080.9 480.32 2081.3 481.153 2080.9 482.059C2080.76 482.371 2079.01 482.547 2078.83 482.619C2076.02 483.757 2080.08 483.291 2080.28 483.432C2082.2 485.017 2079.55 487.288 2082.93 488.43C2083.05 488.471 2087.17 487.575 2084.3 488.792C2084.1 488.876 2082.09 488.724 2082.16 489.627C2082.23 490.534 2080.46 492.718 2082.67 493.4C2083.2 493.569 2086.69 493.377 2084.27 494.665C2083.95 494.839 2082.76 495.079 2082.14 495.371C2080.18 496.315 2084.33 495.356 2080.98 496.771C2077.62 498.186 2075.29 499.88 2078.05 500.407C2078.13 500.427 2081.45 499.748 2081.51 500.143C2081.61 500.778 2081.21 501.854 2081.43 502.488C2081.54 502.791 2083.48 501.964 2083.53 502.005C2085.3 503.684 2083.97 505.632 2083.96 508.063C2083.95 508.514 2087.04 508.679 2085.19 510.204C2083.17 511.889 2073.18 514.53 2076.23 515.708C2077.46 516.207 2090.03 512.534 2084.26 516.365C2086.86 518.404 2084.7 522.215 2088.07 523.962C2088.22 524.041 2091.72 522.954 2091.8 523.251C2091.91 523.696 2090.45 524.617 2090.48 524.962C2090.58 526.425 2092.43 526.96 2092.76 528.21C2092.9 528.688 2091.23 529.283 2091.4 529.858C2091.56 530.434 2093.82 529.784 2093.16 530.987C2092.65 531.898 2088.66 534.53 2088.54 535.519C2092.74 533.474 2092.9 534.016 2094.44 534.343C2094.74 534.405 2096.1 533.491 2096.32 533.482C2097.23 533.426 2096.18 534.335 2097.15 534.227C2097.38 534.202 2098.81 533.48 2099.08 533.418C2101.43 532.856 2098.67 535.342 2098.2 535.781C2096.39 537.441 2098.37 536.744 2097.77 537.61C2097.17 538.481 2095.79 538.377 2095.56 539.152C2095.08 540.76 2096.02 541.945 2096.53 543.029C2096.75 543.456 2098.45 542.14 2098.53 542.178C2099.47 542.766 2097.99 544.75 2101.95 543.13C2092.74 549.14 2103.16 543.118 2101.95 545.415C2101.85 545.598 2097.43 548.324 2096.56 548.328C2095.68 548.329 2096.76 546.953 2095.43 547.018C2095.12 547.035 2090.48 548.707 2090.16 548.749C2087.72 549.092 2094.43 545.209 2094.78 544.964C2098.55 542.282 2093.49 543.958 2093.05 543.896C2091.01 543.631 2091.51 542.247 2089.97 541.877C2088.98 541.64 2084.45 543.941 2084.34 543.388C2083.96 541.54 2090.01 537.805 2083.77 539.083C2082.44 539.351 2077.63 542.144 2080.96 539.039C2081.17 538.84 2084.34 536.231 2081.83 536.846C2081.51 536.923 2080.06 537.632 2079.9 537.608C2078.84 537.437 2079.82 536.509 2078.98 536.173C2078.13 535.836 2076.95 535.496 2077.13 534.572C2077.23 534.015 2079.72 532.222 2080.3 531.71C2081.98 530.259 2078.52 531.088 2080.71 529.677C2082.92 528.268 2086.8 527.332 2087.93 525.751C2084.07 527.43 2080.1 529.108 2076.21 530.77C2075.42 528.629 2075.8 526.061 2074.78 524.064C2074.65 523.817 2072.67 524.938 2072.47 524.693C2071.66 523.651 2072.74 522.032 2071.67 521.055C2070.83 520.279 2068.19 520.065 2067.24 519.248C2071.51 516.94 2069.43 516.023 2069.46 514.781C2069.46 514.349 2070.68 513.945 2070.98 513.537C2072.09 512.012 2068.24 513.891 2067.51 513.83C2064.4 513.547 2073.46 510.318 2072.77 509.023C2072.74 508.958 2067.57 509.664 2067.22 509.632C2064.98 509.474 2068.88 508.943 2069.08 508.327C2069.44 507.208 2070.4 506.182 2068.63 505.544C2068.1 505.362 2064.81 505.521 2066.99 504.182C2067.27 504.007 2068.91 503.563 2068.99 503.469C2070.22 501.821 2065.11 503.304 2063.17 503.115C2061.24 502.922 2064.47 500.843 2065.43 500.35C2067.91 499.053 2066.68 500.459 2066.95 500.417C2070.13 499.896 2069.38 499.292 2069.48 498.646C2074.49 497.165 2073.97 496.469 2069.57 497.982C2069.09 498.15 2069.68 498.467 2069.48 498.646C2064.41 499.517 2063.52 498.749 2067.88 496.542C2069.93 495.512 2072.57 495.275 2071.3 494.154C2070.72 493.644 2067.3 494.771 2066.2 494.441C2063.7 493.668 2066.55 491.168 2065.73 489.957C2065.43 489.513 2063.62 490.427 2063.35 490.135C2062.62 489.357 2063.89 488.253 2062.96 487.52C2062.87 487.453 2060.9 488.084 2060.82 487.808C2060.13 485.711 2061.06 483.649 2060.69 481.368C2060.5 480.278 2059.05 478.517 2059.1 477.348C2059.16 475.315 2061.79 472.52 2060.86 470.982C2060.26 469.967 2058.25 470.447 2056.79 470.143C2053.98 469.536 2058.64 467.346 2059.37 467.063C2059.39 467.054 2059.98 467.942 2060.98 467.325C2063.14 466.797 2059.38 467.073 2059.37 467.063C2059.84 466.866 2060.11 464.946 2059.69 464.612C2059.45 464.431 2057.52 464.727 2057.43 464.628C2055.46 462.247 2054.77 459.736 2055.54 457.056C2055.58 457.008 2057.76 456.958 2057.82 456.848C2058.71 455.304 2056 454.479 2054.37 453.278C2052.74 452.081 2053.25 451.047 2056.99 450.248C2056.49 449.326 2058.14 447.976 2059.14 447.222C2060.15 446.469 2055.9 446.362 2055.81 446.292C2053.13 444.134 2055.58 442.898 2056.02 440.718C2056.24 439.678 2055.71 437.584 2055.31 436.426C2054.98 435.509 2056.01 435.033 2055.43 434.17C2055.35 434.051 2053.45 434.041 2053.38 434.002C2051.19 432.906 2055.77 433.674 2056.61 433.539C2059.66 433.053 2061.28 432.769 2059.97 431.497C2059.66 431.211 2053.09 429.852 2052.75 429.302C2052.32 428.598 2054.67 429.067 2054.16 428.33C2054.12 428.267 2052.65 428.138 2052.76 427.719C2053.23 425.771 2054.33 423.751 2054.45 421.707C2054.47 421.425 2052.11 421.48 2052.1 421.063C2052.08 419.11 2052.48 417.015 2053.87 415.353C2054.22 414.945 2055.78 415.498 2056.28 415.48C2059.28 415.377 2055.21 413.82 2055.16 413.659C2053.73 409.945 2058.04 408.122 2057.01 404.366C2056.94 404.169 2052.82 401.675 2056.8 401.959C2057.06 401.972 2061.11 402.316 2058.58 401.111C2058.43 401.034 2056.32 400.924 2056.7 400.295C2057.07 399.67 2056.01 398.231 2058.46 397.874C2059.24 397.756 2063.28 398.133 2060.45 396.414C2060.24 396.313 2053.68 392.957 2058.62 393.852C2059.43 394.001 2064.46 395.562 2062.17 393.776C2061.73 393.43 2060.49 393.453 2059.95 392.721C2059.1 391.589 2060.78 390.952 2058.85 389.26C2058.51 388.967 2055.34 387.123 2058.11 387.371C2058.55 387.412 2060.17 388.133 2060.45 387.887C2061.83 386.727 2061.25 384.796 2062.92 383.729C2063.51 383.352 2066.1 384.58 2067 384.309C2067.91 384.036 2068.99 383.24 2067.98 382.23C2066.98 381.215 2062.5 380.218 2062.49 379.236C2062.44 374.959 2066.46 372.274 2068.45 368.892C2068.75 368.386 2067.07 368.144 2067.41 367.344C2068.62 364.421 2069.85 358.671 2074.22 357.925C2077.7 357.349 2078.21 360.76 2079.99 359.871C2080.84 359.457 2076.68 356.101 2076.64 355.841C2076.14 353.326 2078.84 353.361 2079.12 351.526C2079.18 351.145 2077.17 350.327 2077.24 350.012C2077.48 348.921 2078.87 348.495 2079.26 347.562C2079.43 347.141 2078.01 346.327 2078.35 346.046C2079.12 345.365 2080.18 345.002 2081.99 345.053C2082.15 345.059 2083.52 346.673 2083.98 346.116C2084.73 345.208 2086.78 344.888 2086.27 342.902C2086.12 342.31 2083.09 340.13 2085.69 340.925C2086.23 341.09 2089.73 343.897 2087.17 340.826C2086.74 340.325 2083.55 335.844 2086.75 337.186C2087.6 337.539 2090.85 339.31 2090.68 338.584C2090.65 338.477 2088.89 337.471 2088.98 337.034C2089.32 335.515 2090.4 334.481 2090.82 332.956C2090.93 332.545 2088.95 331.697 2089.17 331.121C2089.78 329.533 2091.49 328.314 2093 327.55C2093.57 327.27 2094.61 328.696 2094.77 328.786C2097.51 330.273 2094.67 327.283 2094.64 326.953C2094.49 324.95 2096.65 325.438 2097.14 324.15C2097.28 323.796 2095.66 322.657 2095.58 322.487C2094.83 320.784 2097.04 323.573 2097.64 323.495C2099.33 323.286 2100.2 322.14 2100.94 321.025C2101.21 320.614 2099.2 319.42 2099.46 319.066C2100.99 316.939 2103.11 315.179 2105.8 314.376C2106.31 314.228 2107.29 315.712 2107.63 315.937C2110.02 317.531 2108.16 314.069 2108.09 313.642C2107.75 311.714 2109.09 312.591 2109.58 311.768C2112.01 307.692 2117.06 304.949 2120.85 302.956C2125.82 300.328 2130.26 299.381 2134.5 296.319C2134.77 296.126 2133.29 294.305 2133.51 294.112C2136.46 291.697 2140.13 290.71 2143.19 288.414C2143.44 288.228 2142.05 286.463 2142.43 286.097C2143.2 285.332 2144.44 284.858 2145.69 285.045C2146.29 285.133 2146.49 287.132 2147.08 287.189C2148.44 287.327 2149.64 286.951 2150.59 286.139C2151 285.788 2149.37 284.045 2149.98 283.748C2154.07 281.688 2158.25 279.637 2163.55 280.909C2163.91 280.996 2165.64 285.247 2165.97 284.209C2165.62 282.987 2165.15 281.569 2164.74 280.272C2170.82 277.478 2177.62 277.33 2184.08 276.309C2184.35 276.265 2183.41 273.977 2183.94 273.879C2187.02 273.315 2190.05 272.137 2193.51 274.108C2193.85 274.301 2194.25 278.554 2195.07 277.799C2195.21 277.66 2196.5 276.93 2196.75 275.97C2196.79 275.825 2196.31 273.874 2196.75 273.765C2199.32 273.169 2202.18 273.378 2204.81 274.437C2205.24 274.611 2204.93 276.757 2205.23 276.9C2207.35 277.9 2209.56 276.199 2211.59 278.088C2212.94 279.362 2212.51 283.04 2213.22 286.643C2213.32 287.151 2214.09 287.227 2214.14 289.329C2214.25 294.612 2213.93 300.4 2214.1 306.031C2214.13 307.244 2215.03 305.936 2214.5 308.868C2214.46 309.064 2213.82 310.04 2213.68 311.036C2213.58 311.724 2213.78 313.86 2213.58 314.742C2213.37 315.623 2213.12 313.834 2212.78 314.874C2212.44 315.927 2212.64 318.353 2211.96 318.656ZM2063.66 443.858C2065.71 443.206 2058.23 442.963 2060.01 443.757C2060.11 443.796 2063.56 443.892 2063.66 443.858ZM2081.01 523.882C2083.71 521.795 2079.01 523.104 2076.9 524.664C2074.8 526.237 2080.2 524.522 2081.01 523.882ZM2086.94 531.247C2088.87 529.236 2079.18 533.561 2081.6 533.662C2081.74 533.669 2086.83 531.365 2086.94 531.247ZM2210.16 287.734C2210.18 287.832 2210.73 287.913 2210.74 287.815C2210.98 285.432 2209.85 285.272 2210.16 287.734ZM2093.25 538.094C2094.38 537.152 2092.49 537.1 2091.08 538.267C2089.95 539.21 2091.85 539.271 2093.25 538.094ZM2075.56 409.99C2075.67 410.004 2075.85 409.654 2075.24 409.524C2073.25 409.107 2073.7 409.757 2075.56 409.99ZM2100.75 551.217C2099.91 549.055 2106.81 543.499 2107.16 546.034C2107.23 546.497 2104.29 546.661 2103.89 547.537C2103.18 549.153 2108.23 546.89 2106.25 549.299C2105.89 549.746 2100.78 551.355 2100.73 551.22C2100.74 551.219 2100.74 551.218 2100.75 551.217ZM2072.64 443.613C2072.74 443.601 2072.84 443.077 2072.75 443.063C2070.38 442.727 2070.17 443.797 2072.64 443.613ZM2086.15 390.282C2086.36 390.328 2086.96 389.287 2086.79 389.183C2083.39 387.213 2082.14 389.372 2086.15 390.282ZM2080.93 477.76C2083.38 477.885 2083.77 478.472 2080.91 479.469C2080.97 478.896 2080.88 478.336 2080.93 477.76Z" fill="white"/>
</g>
<defs>
<filter id="filter0_ddddd_524_257" x="0" y="0" width="3249.08" height="2528.37" filterUnits="userSpaceOnUse" color-interpolation-filters="sRGB">
<feFlood flood-opacity="0" result="BackgroundImageFix"/>
<feColorMatrix in="SourceAlpha" type="matrix" values="0 0 0 0 0 0 0 0 0 0 0 0 0 0 0 0 0 0 127 0" result="hardAlpha"/>
<feOffset dx="-46" dy="27"/>
<feGaussianBlur stdDeviation="59"/>
<feColorMatrix type="matrix" values="0 0 0 0 0 0 0 0 0 0 0 0 0 0 0 0 0 0 0.29 0"/>
<feBlend mode="normal" in2="BackgroundImageFix" result="effect1_dropShadow_524_257"/>
<feColorMatrix in="SourceAlpha" type="matrix" values="0 0 0 0 0 0 0 0 0 0 0 0 0 0 0 0 0 0 127 0" result="hardAlpha"/>
<feOffset dx="-186" dy="109"/>
<feGaussianBlur stdDeviation="107.5"/>
<feColorMatrix type="matrix" values="0 0 0 0 0 0 0 0 0 0 0 0 0 0 0 0 0 0 0.26 0"/>
<feBlend mode="normal" in2="effect1_dropShadow_524_257" result="effect2_dropShadow_524_257"/>
<feColorMatrix in="SourceAlpha" type="matrix" values="0 0 0 0 0 0 0 0 0 0 0 0 0 0 0 0 0 0 127 0" result="hardAlpha"/>
<feOffset dx="-418" dy="244"/>
<feGaussianBlur stdDeviation="125"/>
<feColorMatrix type="matrix" values="0 0 0 0 0 0 0 0 0 0 0 0 0 0 0 0 0 0 0.15 0"/>
<feBlend mode="normal" in2="effect2_dropShadow_524_257" result="effect3_dropShadow_524_257"/>
<feColorMatrix in="SourceAlpha" type="matrix" values="0 0 0 0 0 0 0 0 0 0 0 0 0 0 0 0 0 0 127 0" result="hardAlpha"/>
<feOffset dx="-743" dy="434"/>
<feGaussianBlur stdDeviation="125"/>
<feColorMatrix type="matrix" values="0 0 0 0 0 0 0 0 0 0 0 0 0 0 0 0 0 0 0.04 0"/>
<feBlend mode="normal" in2="effect3_dropShadow_524_257" result="effect4_dropShadow_524_257"/>
<feColorMatrix in="SourceAlpha" type="matrix" values="0 0 0 0 0 0 0 0 0 0 0 0 0 0 0 0 0 0 127 0" result="hardAlpha"/>
<feOffset dx="-1161" dy="678"/>
<feGaussianBlur stdDeviation="125"/>
<feColorMatrix type="matrix" values="0 0 0 0 0 0 0 0 0 0 0 0 0 0 0 0 0 0 0.01 0"/>
<feBlend mode="normal" in2="effect4_dropShadow_524_257" result="effect5_dropShadow_524_257"/>
<feBlend mode="normal" in="SourceGraphic" in2="effect5_dropShadow_524_257" result="shape"/>
</filter>
</defs>
</svg>
